<svg version="1.2" xmlns="http://www.w3.org/2000/svg" viewBox="0 0 1000 600" width="50" height="50">
	<title>bz-svg</title>
	<style>
		.s0 { fill: #ffffff } 
		.s1 { fill: #ad7d5a;stroke: #000000;stroke-width: .5 } 
		.s2 { fill: none;stroke: #006600;stroke-width: .5 } 
		.s3 { fill: #5ac800 } 
		.s4 { fill: #66ff66 } 
		.s5 { fill: none } 
		.s6 { fill: #d67c59;stroke: #000000;stroke-width: .5 } 
		.s7 { fill: #338a00;stroke: #003300;stroke-width: .5 } 
		.s8 { fill: none;stroke: #004b00;stroke-width: .5 } 
		.s9 { fill: #9dc9e2 } 
		.s10 { fill: #ffffff;stroke: #000000;stroke-width: .7 } 
		.s11 { fill: #ffe682;stroke: #000000;stroke-width: .7 } 
		.s12 { fill: none;stroke: #000000;stroke-linecap: round;stroke-width: .5 } 
		.s13 { fill: #d90f19;stroke: #000000;stroke-linejoin: round;stroke-width: .5 } 
		.s14 { fill: #ffffff;stroke: #000000;stroke-linejoin: round;stroke-width: .5 } 
		.s15 { fill: #ffffff;stroke: #000000;stroke-linecap: round;stroke-linejoin: round;stroke-width: .5 } 
		.s16 { fill: #ffffff;stroke: #000000;stroke-width: .5 } 
		.s17 { fill: #006ac8 } 
		.s18 { fill: none;stroke: #000000;stroke-width: .5 } 
		.s19 { fill: #006ac8;stroke: #000000;stroke-width: .6 } 
		.s20 { fill: #e8e8e6;stroke: #000000;stroke-width: .5 } 
		.s21 { fill: #ccb8c8 } 
		.s22 { fill: none;stroke: #000000;stroke-width: .4 } 
		.s23 { fill: #4d4d4d } 
		.s24 { fill: none;stroke: #4d4d4d;stroke-width: .9 } 
		.s25 { fill: none;stroke: #4d4d4d;stroke-linecap: square;stroke-width: .9 } 
		.s26 { fill: #358b03;stroke: #006600;stroke-width: .5 } 
		.s27 { fill: none;stroke: #4d4b4d;stroke-width: .8 } 
		.s28 { opacity: 1;fill: #ad7c59;stroke: #000000;stroke-width: .5 } 
		.s29 { fill: #000000;stroke: #000000;stroke-width: .5 } 
		.s30 { fill: #ffffff;stroke: #ffffff;stroke-width: .5 } 
		.s31 { fill: #ffffff;stroke: #000000;stroke-linecap: round;stroke-linejoin: round;stroke-width: .4 } 
		.s32 { fill: #000000;stroke: #000000;stroke-width: .4 } 
		.s33 { fill: #653024;stroke: #000000;stroke-width: .5 } 
		.s34 { fill: #ad7c59;stroke: #000000;stroke-linecap: round;stroke-linejoin: round;stroke-width: .5 } 
		.s35 { fill: #ad7c59;stroke: #000000;stroke-linecap: round;stroke-width: .5 } 
		.s36 { fill: #653024;stroke: #000000;stroke-linecap: round;stroke-width: .5 } 
		.s37 { fill: #653024;stroke: #000000;stroke-linecap: round;stroke-linejoin: round;stroke-width: .5 } 
		.s38 { fill: #653024 } 
		.s39 { fill: #ffe682 } 
		.s40 { fill: #171696 } 
		.s41 { fill: none;stroke: #000000;stroke-width: .7 } 
		.s42 { fill: none;stroke: #ffffff;stroke-width: .7 } 
		.s43 { fill: #000000;stroke: #000000;stroke-width: .7 } 
		.s44 { fill: none;stroke: #000000;stroke-width: .9 } 
		.s45 { fill: #338a00;stroke: #075400;stroke-width: .5 } 
	</style>
	<g id="Layer">
		<path id="Layer" class="s0" d="m486.2 457.9c-92.9 0-168-75-168-168 0-92.9 75.1-168 168-168 92.9 0 168 75.1 168 168 0 93-75.1 168-168 168z"/>
		<path id="Layer" class="s1" d="m398.7 354.2c-0.2 1.2-0.7 2.8-0.9 4.9 0 0.5-0.4 2.9 0.9 3 1 0.1 1.3-2.5 1.3-2.5 0 0-0.9 2.9 0.3 3.3 1.6 0.3 1.8-3.2 1.8-3.2-0.2 1-1.3 3.5 0.3 3.8 1.6 0.3 2.1-3.5 2.1-3.5 0 0-1.4 3.8 0.3 3.9 1.5 0.1 1.5-3.7 1.5-3.7 0 0-0.8 4.5 1.4 4.1 1.2-0.2 1.4-1.7 1.7-2.6 0.4-1.4 1.2-3.1 0.2-5.9-0.7-2.1-0.5-2.7-0.5-2.7 0 0-2.5 1.9-4.5 3.2-0.9 0.5-5.9-2.1-5.9-2.1zm26.7-3.9c-0.5-0.3-0.4 1.6-0.6 2.5-0.1 0.9 0.2 2.9 3.3 2.8 3-0.3 6-0.9 7.9-0.5 1.9 0.6 4.8 0.6 6.3 0.6 1.6 0 2.6-0.1 3.3-0.4 0.6-0.3 2 0.4 2.6 0.4 0.7 0 1.7-1 1.6-1.7-0.1-1.2-1.2-1.2-2.7-1.3-1.5-0.1-3.5-0.4-4.5-0.8-1-0.3-2.8-1.3-5.1-1.8 0 0-4.4 0.2-5.3 0.2-0.9 0-6.3 0.3-6.8 0z"/>
		<path id="Layer" fill-rule="evenodd" class="s2" d="m410.7 356.8l-0.2-4.2 1.7 1.4 0.5-3.2c0.7-0.1 1.9 1.3 1.9 1.3l-0.2-3.2 2.7 2.9c0 0-0.2-2.4 0.7-3.9 0 0 2 1.8 2 3.8 0 1.7 1.7-2.5 1.7-2.5 0.5 1.5 1.5 4.6 1.5 4.6l1.2-1.7 1 3.7 2.2-3.2 1.7 3.7 3.9-0.3 0.5 2.2 1.7-1.9 2.3 1.5c0 0 1.9-0.6 2.9-0.6 1 0 2.2 1.3 2.2 1.3 0 0 0.7-1.3 1.4-1.7 0.8-0.5 1.8 0.7 2 1.4l1.5-2.6c0 0 1.9 1.9 2.2 2.6 0 0 0.3-2.2 0.7-2.9 0.5-0.7 1.2 0.3 1.8 1.2l1.1-3.9c0 0 1.3 0.2 2.2 1.7 1 1.5 1-2.2 1-2.2 0 0 2.2 2.9 2.8 4.9m54.8-0.7c0 0 0.8-2 1.8-3 0 0 1.9 2.3 1.9 3 0 0 0.5-0.3 1.5-1l1.5 1.5 1.7-1.2 1.7 1.4 3-1.2 1.2 1.2 4.6-0.5 1.8 0.7 1.6-2.1 1.5 1.7 2.5-2.5c0 0 1.2 1 1.5 1.7 0 0 2-1 2.4-1.7 0 0 1.9-0.7 2.2 0.5 0 0 1.2-1 1.1-2-0.1-1 1.4-0.2 1.8 1 0 0 0.6-2 2-2.1 0 0 1 1.1 0.8 3.3 0 0 2.1-1.7 3.1-1.9 0 0 0.5 2.5-0.2 4.7 0 0 2.3-3.8 2.7-2.5 0.2 0.7 0.7 3.2 0.2 4.9l2-1.3 0.5 1.8zm46.4 4.5l2.4 0.2-2.2 0.4zm-100 7.7c0 0 1.6-2.7 2.6-3.5 0 0 1.7 1.3 2.6 3.1zm5.2-0.3l0.6-0.1c-0.2 0.6-0.3 0.9-0.3 0.9q-0.1-0.4-0.3-0.8zm1.3-1.9c0 0 1.5 0.6 2.4 1.6l-3.1 0.2c0.1-0.5 0.4-1.2 0.7-1.8zm2.4 1.6l1.8-0.1c-0.5 0.7-1 1.5-1 1.5-0.1-0.5-0.4-1-0.8-1.4zm2.6-0.8c0.3-0.2 0.6 0.1 0.8 0.6l-1.6 0.1c0.3-0.3 0.5-0.6 0.8-0.7zm0.8 0.6l32.3-2.2c-1.2 0.8-2.8 3.8-2.8 3.8 0-1-1.4-2-1.4-2-1.5 0.5-1.8 3.2-1.8 3.2 0-1-1-2.6-1.7-2.1-0.7 0.3-1.6 3.8-1.6 3.8 0-1.2-2-1.9-2-1.9-0.8 1.1-3.2 4.3-3.2 4.3l-2.7-2c-3 0.8-5.4 3.1-5.2 2 0.6-2-1.6-3.4-1.6-3.4-0.7-0.3-2.5 1.4-2.5 1.4-0.5-3.1-2.4-4.1-2.4-4.1-1 0.1-2.8 2-2.8 2 0-0.9-0.2-2.1-0.6-2.8z"/>
		<path id="Layer" class="s3" d="m410.7 356.8l-0.2-4.2 1.7 1.4 0.5-3.2c0.7-0.1 1.9 1.3 1.9 1.3l-0.2-3.2 2.7 2.9c0 0-0.2-2.4 0.7-3.9 0 0 2 1.7 2 3.8 0 1.7 1.7-2.5 1.7-2.5l1.5 4.6 1.2-1.7 1 3.7 2.2-3.2 1.7 3.7 3.9-0.3 0.5 2.2 1.7-1.9 2.3 1.5c0 0 1.9-0.6 2.9-0.6 1 0 2.2 1.3 2.2 1.3 0 0 0.7-1.3 1.4-1.7 0.8-0.5 1.8 0.7 2 1.4l1.5-2.6c0 0 1.9 1.9 2.2 2.6 0 0 0.3-2.2 0.7-2.9 0.5-0.7 1.2 0.3 1.8 1.2l1.1-3.9c0 0 1.3 0.2 2.2 1.7 1 1.5 1-2.2 1-2.2 0 0 2.2 2.9 2.8 4.9 0 0-15.1 5.2-25.8 3.8-12.5-1.7-22.8-4-22.8-4m103.4-0.5c0 0 0.8-2 1.8-3 0 0 1.9 2.3 1.9 3 0 0 0.5-0.3 1.5-1l1.5 1.5 1.7-1.2 1.7 1.4 3-1.2 1.2 1.2 4.6-0.5 1.8 0.7 1.6-2.1 1.5 1.7 2.5-2.5c0 0 1.2 1 1.5 1.7 0 0 2-1 2.4-1.7 0 0 1.9-0.7 2.2 0.5 0 0 1.2-1 1.1-2-0.1-1 1.4-0.2 1.8 1 0 0 0.6-2 2-2.1 0 0 1 1.1 0.8 3.3 0 0 2.1-1.7 3.1-1.9 0 0 0.5 2.5-0.2 4.7 0 0 2.3-3.8 2.7-2.5 0.2 0.7 0.7 3.2 0.2 4.9l2-1.3 0.7 2.5 2.2-0.4c0 0-12.9 1.9-25.1 0.8-12.2-1.2-23.7-5.5-23.7-5.5zm-9 9.1c0.6-0.4-4 9.5-15.3 10.1-15.8 0.7-29.2-7.1-29.2-7.1 0 0 1.6-2.8 2.6-3.5 0 0 2.2 1.7 2.9 3.9 0 0 0.3-1.4 1-2.7 0 0 2.8 1.3 3.2 3 0 0 1-1.7 1.7-2.2 0.8-0.5 1.5 1.9 1.5 3.4 0 0 1.7-1.8 2.7-1.9 0 0 2 0.9 2.5 4.1 0 0 1.8-1.8 2.5-1.5 0 0 2.2 1.5 1.6 3.5-0.3 1.1 2.2-1.3 5.2-2l2.6 2c0 0 2.5-3.3 3.2-4.4 0 0 2 0.7 2 1.9 0 0 1-3.5 1.7-3.8 0.7-0.5 1.7 1.1 1.7 2.1 0 0 0.3-2.7 1.7-3.2 0 0 1.5 1 1.5 2 0 0 1.5-3 2.7-3.7z"/>
	</g>
	<path id="Layer" class="s4" d="m531.6 183.3c0 0-1.1-0.1-2.2-0.9 0 0 2.2 0.9 2.2 0.9z"/>
	<g id="Layer">
		<path id="Layer" fill-rule="evenodd" class="s2" d="m531.6 183.3c0 0-1.1-0.1-2.2-0.9"/>
		<path id="Layer" fill-rule="evenodd" class="s5" d="m507 202.1l1.2 0.7 1.4 0.2c0 0 1.4 1.3 3 2.6 1.2 1 1.2-0.2 1.2-0.2l0.8 3h1c0 0-0.2 2-0.2 3.1l1.8-1.6 2 1.9c0 0 1.6-1.4 2.3-1.4 0.8 0 1.1-0.7 1.1-0.7h0.1c-5.1-2.4-7.3-4.9-5.7-7.4 2.4-4.3 6.5-1.6 7.8-1l18.5 9.9c0 0 1.2-0.8 0.3-1.5-0.9-0.8-1.3-2.7-1-3.5 0.3-0.7 2.4 2.4 3.4 2.7 1.1 0.3 3.4 0.7 3.4 0.7l-0.1-1c0 0 3.1 2.1 3.1 3.2 0 0 2.2-1.2 1.4-1.9-0.8-0.6 3.3 1.7 3.6 2.9l0.9-1c-0.1 0 0.3-3 1.3-4.4 1-1.4 2-1.8 2-1.8 0 0 0.9-1.6 1.9-1.6 0 0-1-0.7-1.3-1.5-0.5-0.7-1.6-1.1-1.6-1.1 0 0 1.4-1 1.8-1.5 0.3-0.6 0.7-0.7 0.7-0.7 0 0-2.2-1.8-3.7-2.1 0 0-0.1-2.4-2-2.6h0.9c0 0-1.4-2.7-2.8-2.8 0 0 0.9-0.9 1.6-1 0 0-1.6-2.1-3.8-1.4l1.5-0.5c0 0-1.1-1.2-4.3-0.6 0 0 0.3-1.3-1.1-2.4 0 0-1.3 0.1-1.3 1.1 0 0-1.1-1.1-2.5-1.1-1.5 0 0.4 1.5 0.4 1.5 0 0-1.9-1.2-3-0.8 0 0 0.5-2.2-0.8-3.3 0 0-1.4 0.7-1.8 1.7l-0.4-1c0 0-1.9 2.3-2.2 1.6-0.3-0.3-0.6-1.9-0.6-1.9l-1.1 1.7 0.2-2.4c0 0-1.4 0.7-2.4 3.2 0 0-1.4 1.2-1.4 2.4 0 0-1-1.2-1.9 0-0.9 1.3 0 1 0 1 0 0-0.4 0.5-1.4 0.7l0.2 0.8c0 0-1.2-0.7-2.2-0.4l0.5 1.1c0 0-2.5 0.2-2.6-1.8 0 0-2-1-2.3 0.1 0 0-1.7 0-1.6 1 0 0-0.4-1-1.3-1.2-0.9-0.3-0.2 1.2-0.2 1.2 0 0-0.3-1.1-1.4-1.7-1.1-0.4-0.2 1.1-0.2 1.1 0 0-1.5-1.2-0.7-2.2 0 0-1.5 1.3-0.8 2.6l-1 0.6c0 0-0.4-0.4-0.3-0.8 0.1-0.4-1.6 1.1-1.6 1.1 0 0-1.1-2.5 0-2.5 0 0-1.9-0.1-2.1 2.1-0.3 2.1 0 0 0 0 0 0-1.3 0.1-2.4 0.5-1.2 0.4 0.8 1.2 0.8 1.2 0 0-1.8-0.3-2.8 0.2l0.7 0.9c0 0-0.7-0.7-2.3-0.1-1.7 0.5 0.4 0.8 0.4 0.8 0 0-1.7-0.4-2.6 0-0.9 0.3 0.3 1 0.3 1 0 0-3.1-1-3.6-0.7-0.5 0.3 1 1.8 1 1.8 0 0-1.9 0.5-2.3 1.9l1.8 0.7c0 0-0.8 0.4-1.2 1.1-0.4 0.8 1.2 0.4 1.2 0.4 0 0-2.1 1.5-2.1 2.7 0 0 1.5 0.5 2.6-0.7 1.2-1.1 0.4-0.7 0.4-0.7l0.1 0.7c0 0 2.2-0.9 2.2-1.5 0-0.5-0.4 0.8-0.4 0.8l2.2-1.2c0 0 1.4 1 1.4 1z"/>
		<path id="Layer" fill-rule="evenodd" class="s5" d="m505.2 172.4l-0.5-2.1c0 0 2.6 0 4.9 0.6l0.8-2c0 0 2.3 1.1 3.1 1.8 0 0 4.4-1.1 5.8-0.6l-0.6 2.1c0 0 4.1 0.2 5.4 0.7 1.2 0.5-0.6 1.5-0.6 1.5 0 0 4.7 0.6 6.7 1.8 2.1 1.3 2.1 2.3 1 2.6l2.6 4.1c0 0-4.1 0.5-4.9 1.5-0.7 1-1.5-1-1.5-1l-0.7 2.8c0 0-2.6-1.3-3.6-2.3 0 0-1.3 1.5-0.5 2.3 0 0-3.3 0-4.7-3 0 0-2-0.3-2 1.5 0 0-2.3-2.6-2.8-3.3l-2.6 0.7c0 0-0.7-1-1.7-1.3-1-0.2-0.3 1.3-0.3 1.3l-1.5-1.8-1.5-1.8c0 0-1.4 1.8-2.4 1.8-0.9 0-0.9-1.2-0.8-2.1 0.3-0.7-3-0.9-3.3 0 0 0-0.9-3.8 2.6-4.8 0 0 3.6-1 3.6-1z"/>
	</g>
	<g id="Layer">
		<g id="Layer">
			<path id="Layer" fill-rule="evenodd" class="s6" d="m528.8 184.5c0 0 0.6-1.3 1.7-0.6 0.9 0.8 1.2 4.1 1.2 4.1l-1.5 0.8c0 0 0.8-1.3-1.4-4.3zm-30.6 38.7c-1 0.8-1.1 2.1-1.6 2.9-0.5 0.7-1.9 1.8-2 2.9-0.2 1.2-0.3 1.9 0.2 3.5 0.5 1.5 2.9 8.2 1.9 13.3-1 5.2-0.6 7.4-0.2 8.1 0.3 0.8 1.5 2.9 2.1 2.9 1.6-0.2 0.9-0.7 1.5-1.7 1.4-2.4 0-21.5-0.7-26.8-0.3-2.4-1-4.7-1.7-6.2 0.3 0.6 0.5 1.1 0.5 1.1zm-1.4-3.1c-0.1-0.5-0.5-1.7-0.8-2.5-1.4-3.4-3.1-6.3-3.1-13.5 0 0-4.7 1.1-8.7-7.9-2.1-4.6-5.1-4.1-8.7-5.6l1.6-1.1c0 0 3 1.5 4.6 1.5 1.5 0 1-3 1-3l1.5-1.5v6.6c0 3.1 4.2 7.2 6.7 8.5 1.5 0.7 3.5-2.4 3-5.4-0.5-3.1 0-7.2 0-7.2l2.1 1.3c0 0-0.8 1.3-0.6 2.1 0.3 0.7 1.3-0.8 2.1-1.5 0 0 0.2 0.1 1 0.1 0 0-1.6 2.6-2.3 3.9-0.8 1.3-0.8 6.1-0.8 7.9 0 1.8 0.7 6 0.7 7.3 0 1 1.8 4.9 3.2 7.2 0.5 1 1.6 3.5 1.6 3.5 1.2 1.8 1.3 3 1.9 4.5 0.4 0.8 1.1 3 1.5 6.8 0.2 0.9 0.4 4.5 0.7 6.9 0.3 2.3 2.2 0.5 4.5-1.1 2.3-1.7 2.3-5.8 2.3-5.8 0 0 1.8-1.6 1.5-0.7-0.2 1 0.9 1.9 0.9 1.9-1.4 3.2-0.5 2.9 0.9 2.8 1.4-0.2 6.3-3.9 6.3-3.9 0.7-0.2 3.6-0.2 3.2 0-0.6 0.2-1.4 1.7-1.4 1.7l3.3-0.4c-1.2 0.8-5.4 3.3-6.4 3.9-1 0.7-6.2 3.1-8.3 4-2.2 0.9-6.5 3-6.7 5.2-0.1 2.2 0.3 8.1 0 10-0.2 1.9-0.9 10.3-0.9 10.3h-10.2c0 0 2-7.4-0.1-9.4-2-2.1-6.6-8.2-9.7-10.2-3-2 2-0.5 2-0.5v-2.1l4.7 5.6c0 0 8-7.1 0-16.8-2.6-3-5.2-7.7-7.2-8.2-2-0.5-3.1-1-6.6 0-3.6 1.1-12.3 1.1-15.9-4.6l3.1-0.5 2.5-1.1c0 0-1 3.7 6.2 3.7 7.1 0 8.2 0 7.6-6.7l2.1-1 1.5 1.5c0 0-1 3.6-0.5 5.1 0.5 1.5 3.1 2.6 5.1 4.1 0.8 0.7 1.5 0.8 2.1 0.8 0.8-0.1 1-0.1 2.1-1.3 1.8-1.9 1.4-1.8 3.1-3.3 0 0 0.7-1.1 1-1.4q-0.2-0.4-0.3-0.5zm0.3 0.5c0.1 0.3 0.4 0.8 0.6 1.5-0.2-0.8-0.6-1.6-0.6-1.6q0 0 0 0.1zm52-11l-4.4 2.5-1.8-0.8 3.6-2.2c0 0 2.6 0.5 2.6 0.5zm-28.9 4.7c0 0 0.8-1-0.3-3.3l1.5-0.5c0 0 0.6 1.8-0.1 3.8 0 0-1.1 0-1.1 0z"/>
			<path id="Layer" fill-rule="evenodd" class="s6" d="m499.7 218.2c0.4-0.4 1.1-1.8 1.8-3 1.1-1.9 2.5-3.1 4-5.4 1.4-2.2 2-5.5 1.4-7.7l1.3 0.7 0.1 3.6c0 0 1.8-1.5 2.6-1.9l0.8 0.4c0 0-5.7 5.9-11.1 15.4 0 0-0.9-2.1-0.9-2.1zm-48.1-20.2c0 1.8 3.5 5.9 3.5 5.9l-1.5 0.4c-2.3-1.9-3.1-4.5-3.8-5.8zm7.1-1.9q0 0 0 0 0 0 0 0zm0 0c0 0.1 1.5 0.8 1.5 0.8 0.3 1.8-0.8 5.1-0.8 5.1l-1.5 0.8c1.2-1.8 0.8-6.6 0.8-6.7zm51.8-14c-0.7 3.9 0.5 5.6 1.5 5.9 1.1 0.3 1.8-0.3 3.1-0.8 1.3-0.5 4.1-2.7 4.1-2.7l0.5 1.5c-1.8 1.5-5.4 3-6.9 3.5-1.5 0.6-1.2 1.8-1.2 1.8l-1.8 0.6c-1.4-4.2-1.1-11-1.1-11zm20.4 31.7c-1 0.5-0.6 6.3-0.6 6.3l-1.7-0.4c-0.2-2.1 0.2-7 0.2-7 0 0 2.1 1.1 2.1 1.1zm7 3.3c-1.5 1.5-2.4 2-2.4 2l-3 0.6c1.9-0.5 3.6-3.4 3.6-3.4 0 0.1 1.8 0.8 1.8 0.8zm-5.7 2.7l0.3-0.1q-0.2 0-0.3 0.1z"/>
		</g>
		<g id="Layer">
			<path id="Layer" class="s7" d="m507 202.1l1.2 0.7 1.4 0.2c0 0 1.4 1.3 3 2.6 1.2 1 1.2-0.2 1.2-0.2l0.8 3h1c0 0-0.2 2-0.2 3.1l1.8-1.6 2.1 1.8c0 0 1.5-1.3 2.2-1.3 0.8 0 1.1-0.7 1.1-0.7h0.1c-5.1-2.4-7.2-4.9-5.7-7.4 2.4-4.3 6.5-1.6 7.9-1l18.4 9.9c0 0 1.2-0.8 0.4-1.5-1-0.8-1.4-2.7-1.1-3.5 0.3-0.7 2.4 2.4 3.4 2.7 1.1 0.3 3.4 0.7 3.4 0.7v-1c0 0 3 2.1 3 3.1 0 0 2.2-1.1 1.4-1.8-0.7-0.6 3.3 1.7 3.6 2.9l0.9-1c-0.1 0 0.3-3 1.3-4.4 1-1.4 2-1.8 2-1.8 0 0 1-1.6 1.9-1.6 0 0-1-0.7-1.3-1.5-0.5-0.7-1.6-1.1-1.6-1.1 0 0 1.4-1 1.8-1.5 0.3-0.6 0.7-0.7 0.7-0.7 0 0-2.2-1.8-3.7-2.1 0 0-0.1-2.4-2-2.6h0.9c0 0-1.4-2.7-2.8-2.8 0 0 0.9-0.9 1.6-1 0 0-1.6-2.1-3.8-1.4l1.5-0.5c0 0-1.1-1.2-4.3-0.6 0 0 0.3-1.3-1.1-2.4 0 0-1.3 0.1-1.3 1.1 0 0-1.1-1.1-2.5-1.1-1.5 0 0.4 1.5 0.4 1.5 0 0-1.9-1.2-3-0.8 0 0 0.5-2.2-0.8-3.3 0 0-1.4 0.7-1.8 1.7l-0.3-1c0 0-1.9 2.3-2.3 1.6-0.3-0.3-0.6-2-0.6-2l-1.1 1.8 0.2-2.4c0 0-1.4 0.7-2.4 3.2 0 0-1.3 1.2-1.3 2.4 0 0-1.1-1.2-2 0-0.9 1.3 0 1 0 1 0 0-0.4 0.5-1.4 0.7l0.2 0.8c0 0-1.2-0.7-2.2-0.4l0.5 1.1c0 0-2.5 0.2-2.6-1.8 0 0-2-1-2.3 0.1l-1.5 1c0 0-0.5-1-1.4-1.2-0.9-0.3-0.2 1.2-0.2 1.2 0 0-0.3-1.1-1.4-1.7-1.1-0.4-0.2 1.1-0.2 1.1 0 0-1.5-1.3-0.7-2.2 0 0-1.5 1.3-0.8 2.6l-0.9 0.6c0 0-0.5-0.4-0.4-0.8 0.1-0.4-1.6 1.1-1.6 1.1 0 0-1.1-2.5 0-2.5 0.1 0-1.8-0.1-2.1 2.1 0 0-1.3 0.1-2.4 0.5-1.2 0.4 0.9 1.2 0.9 1.2 0 0-1.9-0.3-2.9 0.2l0.7 0.9c0 0-0.7-0.7-2.3-0.1-1.7 0.5 0.4 0.8 0.4 0.8 0 0-1.7-0.4-2.6 0-0.9 0.3 0.3 1 0.3 1 0 0-3.1-1-3.6-0.7-0.5 0.3 1 1.8 1 1.8 0 0-1.9 0.5-2.3 1.9l1.8 0.7c0 0-0.8 0.4-1.2 1.1-0.4 0.8 1.2 0.4 1.2 0.4 0 0-2.1 1.5-2.1 2.7 0 0 1.5 0.5 2.6-0.7 1.2-1.1 0.4-0.7 0.4-0.7l0.1 0.7c0 0 2.2-0.9 2.2-1.5 0-0.5-0.4 0.8-0.4 0.8l2.2-1.2 1.4 1q0 0 0 0z"/>
			<path id="Layer" class="s7" d="m505.2 172.4l-0.5-2.1 4.9 0.6 0.8-2c0 0 2.3 1.1 3.1 1.8 0 0 4.4-1.1 5.8-0.6l-0.6 2.1c0 0 4.1 0.2 5.4 0.7 1.2 0.5-0.6 1.5-0.6 1.5 0 0 4.7 0.6 6.7 1.8 2.1 1.3 2.1 2.3 1 2.6l2.6 4.1c0 0-4.1 0.5-4.9 1.5-0.7 1-1.5-1-1.5-1l-0.7 2.8c0 0-2.6-1.3-3.6-2.3 0 0-1.3 1.5-0.5 2.3l-4.7-3c0 0-2-0.3-2 1.5 0 0-2.2-2.6-2.8-3.3l-2.6 0.7c0 0-0.7-1-1.7-1.3-1-0.2-0.3 1.3-0.3 1.3l-1.5-1.8-1.5-1.8c0 0-1.3 1.8-2.4 1.8-0.9 0-0.9-1.2-0.7-2.1 0.2-0.7-3.1-0.9-3.4 0 0 0-0.9-3.8 2.6-4.8 0 0 3.6-1 3.6-1zm-18.4 13l-1.6 1.6-1-0.5-1.9 2.1-0.4-1.2-1 1.8-1.6-0.6-0.8 1.2-1.4-0.3c0 0-1.2 1.2-2 1.5-0.8 0.1 0-1.8 0-1.8 0 0-1.1 1.9-2 1.9-0.7 0-0.5-0.8-0.5-0.8 0 0-0.4 1.2-1.4 1.4-0.8 0.1-0.5-0.9-0.5-0.9l-1.5 1.1v-0.9l-0.6-0.3c0 0 0.3-1.7 1-2.1 0.7-0.4-0.7-1.5-0.7-1.5l0.7-0.8c0 0-1.9-0.5-1.9-0.1 0 0 1-2.5 2.3-3l0.1-2.9c0 0 1.3-1.1 2.5-1.2 1.4-0.2-0.3-2.2-0.3-2.2l3-1.8 0.4-2.2 4.6 0.4 1-2 3.7 1 3.1-1.7 2.3 2.7 3.4 0.3c0 0-0.1 2.4-0.1 3 0 0 4.1 1.3 4.6 1.6 0 0-0.8 2.5-0.8 3 0 0 2.9-0.8 3.7-0.6 0 0 0.3 2.7 0.4 3.3 0 0 4.8 1.6 5.1 2.4 0 0-1 0.7-1.6 1.5 0 0 0.6 3 0.6 3.9l-0.4 0.6c0 0-1.4-1.3-2.6-1.5l-0.9 2.1-1.7-1.2-1.1 0.1c0 0-0.8-1-1.5-1l-0.1-1-1.3 0.9c0 0-2.1-1.1-2.1-1.7 0-0.6 0.1-1.6 0.1-1.6l-2.2 1.6c0 0-0.5-1.2-0.4-1.7 0.1-0.4-0.8 1.2-0.8 1.2 0 0-1.2-2-1.1-2.4l-0.3 1.6c0 0-2.2-0.7-2.5-2.2q0-0.1 0-0.1z"/>
			<path id="Layer" fill-rule="evenodd" class="s7" d="m454.8 194.7l-0.8 3.1c0 0-0.5-0.8-0.7 0-0.3 0.7-1.5 1.5-1.5 1.5l0.3-1.3-1.6 0.2c0 0-0.1 0.3-0.7 0.3-0.6-0.1-2.3-0.7-2.3-0.7v0.9c0 0-1.9-1.3-2-0.6-0.2 0.6-1.4 2.3-1.4 2.3l-0.1-1.6c0 0-0.3 0.5-0.6 1.1-0.3 0.5-3.5 1.5-3.5 1.5l1.7-2.9c-0.6 0.2-2.8 2.9-2.8 2.9 0.1-1.8 1.6-5.6 1.6-5.6l-1.9-0.3 1.2-1c0 0-2.4-0.2-1.5-0.5 0.8-0.3 2.4-0.8 2.4-0.8l-0.9-0.2 1.1-1.5-0.9-0.7c0.5-0.8 3-1.6 3-1.6 0 0-1.3-0.2-0.7-0.6 0.4-0.4 2.6-0.8 2.6-0.8 0.3-1.1-0.7-2.7-0.7-2.7 0.8-0.8 3.6 0 3.6 0l-0.6-1.1 1.8 0.1 1.1-2.6c0 0 1.4 0.7 1.7 0.7 1.8 0 3.2-1.5 3.2-1.5 0.6-1.5 2.1-1.4 2.1-1.4-0.2 1.5 1.2 2.1 1.2 2.1 0.9-0.6 3.4 0.1 3.4 0.1l-0.4 0.4c1.1-0.5 2.4-0.1 2.4-0.1 0 0-0.2 1.7 0 2.2 0.1 0.5-1.3 0.8 1 1.2 2.3 0.3 4 1.7 4 1.7h-2.7c0.7 0.4 0.8 1.3 0.8 1.3-2.7-0.4-2.3 1.1-2.3 1.1 4.5 2.1 2.2 4.6 2.2 4.6-0.9-2.6-4.8-0.9-4.3-0.5 0.6 0.6 0.1 2.5 0.1 2.5l-1.5-1c0.5 0.7-0.5 2.8-0.5 2.8 0-0.9-4-2.9-4-2.9 0-0.1-1.6-0.1-1.6-0.1zm-11.4 13.5q0 0 0 0zm0 0l4.6-1.2c0.1-0.8 0.8-1.9 0.8-1.9 0 0 2.3-0.4 3.7 0.3 0 0 2.3-1.7 2.4-2.4 0.2-0.5 2.3-0.7 2.6-0.4 0.4 0.2 2.2-0.7 2.5-1.8 0.3-0.9 2.3 0.3 3.2 1.5 0.9 1.1 1.3-0.5 1.3-0.5 0 0 2.5-3 2.9-3.7 0 0 2 2 2.3 2.7 0.3 0.9 0.3-0.3 0.3-0.3l2.2-0.9 1.2 0.4 2.5-1.8c0 0 1.6 1.4 1.7 1.8 0.2 0.4 4.1 0.3 4.9 0.3 0.8 0 1.5 1.1 1.5 1.1l-1.5 1.4c0 0 6.6 1.4 7.1 2l-1.3 2.7 2.5 1-0.5 0.6h1.5l-1.1 2.3c0 0 1.1-0.4 1.5 0 0.4 0.4-1.5 1.9-1.5 1.9 0 0 1.3 2.2 1.9 4l-4-1.7c0 0-1.1 2.1-1.1 2.5 0 0.4-2.3-1.4-3.3-1.5-0.8-0.2-1.5-1.5-1.5-1.5l-2.2 1.8-1.7-1.2c0 0-2.5 0-2.5 0.7 0 0.9-0.6 2-0.6 2l-2-0.8c0 0-1.7 2.3-2.7 2.4l-1.2-1.2c0 0-2.8 0.9-2.8 1.3 0 0.5-0.1-0.9-0.1-0.9l-2.5 0.9-2.4 0.6c0 0-1.9-2.9-2-4.5l1.8-1-1.8-4.8-2.6 1.4-0.2-0.4-9 4.2-0.1 0.4-7.5 4.5c0 0 0.6-1.7 0.2-2.7 0 0 1.3 0.3 1.1-4.9 0 0 1.8-1.4 3-1.5zm0 0q0 0 0 0zm0 0q0 0 0 0zm39.9 38l-2.1 4.8-2.8-3.8-2.1 3-1.2-1v2.6h-1.6c0 0 0 2.5-0.2 3.3-0.3 0.8-3.6-2.1-3.6-2.1l-4.6 3.6v-2.8l-3.1 0.5-1.5-2.5-3.8-0.8 1.5-2.3-2.5-1.8 3.6-3.3-1.6-1.3 4.1 0.5c0 0-2.3-1-1.5-1.5 0.8-0.6 4.6-2.4 4.6-2.4l-1.1-0.9 2.9-1.1v-1.8l2.5 1.1-0.7-1.3 4.1-0.8 0.1-1.2 2.9 0.4-0.5-1.5 4.1 1.1-0.6-1.4 4.4 1.4c0 0-0.9-1.7 0.4-1.2 1.2 0.5 2.2 1.4 2.2 1.4 0 0 0-1.3 1.2-1 1.3 0.3 2.1 1.8 2.1 1.8 0 0 0.7-1 2-0.6 1.3 0.6 3.3 2.6 3.3 2.6 0 0 1 0 1.8 0.6 0.8 0.4 3.3 3 3.3 3l-1.5 0.5c0.8 0.6-1 3.6-1 3.6v2.2l-1.6-0.7-2.5 2.3v-2.8l-1.1 1.7-1.7-1.7-1.3 1.6-2.3-1.6v2c0 0-3-0.4-3-0.4zm21.6-11.1l-0.4-4.3-1.4 1.3 0.6-4.1-2.1-0.4 0.8-3.9-1.5-0.8 0.3-1.9 1.6-1.1 2.7-2.7 6.4 0.1 0.7-2.1 4.6 0.8c0.7 0.8 3.1-1.7 3.1-1.7h1l1 1.9c0 0 3.3-0.4 4.8 0.6l-1.8 2.5 3.4 0.3 2.2 0.4 2.4-0.7 3.1-0.2 0.7 1.2h2.9l-1 1.2 3.7 1.7-0.7 0.7c0 0 2.1 0.8 3.6 0.8h0.7c0 0 0.8 1.8-0.3 2.6 0 0 1.1 2.5 3.4 3 2.2 0.5 2.2 0.5 2.5 1 0.3 0.5 0 3.1-2.5 3.1v2.5c0 0-2 1.8-2.3 2.6l-1.5-1c0 0-1.4 1.5-1.4 2.5 0 0-3.3-4.3-4.5-4.5-1.3-0.3-1.1 2.4-1.1 2.4l-3.6-3-0.4 2.1-3.1-2.6-1.8 1.3-3.2-3.4-3.1 0.4 1.2-1.6h-3.8l-0.8-3.3-0.5 2.7-2.3-1.5-3 3.2c0 0-0.3-0.3-0.8-1.9-0.5-1.5-1.8 1.8-1.8 1.8l-1.1-2.3-1.2 2.3c0 0-1-1.8-2.1-2.3-0.9-0.5-2 2.8-2.3 4.3zm0.6 10l0.2-1.5 5.4-2.1 4.6-1.7 2.2-1 1.1 1.8 1.3-2.6 2.1 2.6 1.1-1.4 1.8 1.4h1.6l0.3 2c0 0 3.8 0.2 4-0.5 0.3-0.8 0.8 2.5 0.8 2.5l3.6 0.5 0.8 4.1c0 0 1.8 3.8 1.2 5.3-0.5 1.6-2-2-2-2 0 0-0.3 2.9-0.6 3.6-0.2 0.8-4.8-0.7-4.8-0.7l-2 3.8c0 0-2.1-3.1-3-3.1-1.1 0-1.1 3.1-1.1 3.1 0 0-3-3.6-4.4-5.2-1.2-1.5-1.5 1.6-1.5 1.6 0 0-2-3.4-2-4.3 0-1.1-1.8-2.1-1.8-2.1 0 0-3.1 3.6-5.4 4.6 0 0 0.3-2.3-0.5-3.1-0.7-0.7-3 1.5-3 1.5 0 0-1.6-3.5 0-7.1z"/>
		</g>
		<g id="Layer">
			<path id="Layer" fill-rule="evenodd" class="s8" d="m530.6 188.6l0.4 1.9c0 0 1.7-0.4 2.9-0.3 0 0-0.3 1.5-0.7 2.2 0 0 2.3-0.4 3.3 0.3l-0.4 1.1 2.6 1.1-2.4 2c0 0 3.9 1.5 4.7 2.6 0 0-2.6 1.8-2.9 1.7-0.4-0.2-0.1 0.8 0.5 1.6l-2.2-0.1c0 0 0.9 2 0.8 2.8-0.1 0.7-3.6 0.5-3.6 0.5m13.7-5.1c0 0 0.6-3.8-0.4-4.7 0 0 2.2 1.9 3.8 2.1zm3.5-2.6l1-0.7c0 0.5-0.2 0.8-0.8 0.8q-0.1 0-0.2-0.1zm0.1-3.1c0 0 1.3 0.7 2.5 1.2l-1.6 1.2c-0.1-0.9-0.9-2.4-0.9-2.4zm2.5 1.2l1-0.8c0.4 0.6 0.6 1.2 0 1.1-0.3 0-0.6-0.2-1-0.3zm0.2-2c0 0 0.6-1.3 2.5-0.1l-1.7 1.3c-0.3-0.6-0.8-1.2-0.8-1.2zm-41.6-15.2c0 0 0.1-0.9-0.3-1.3-2.1-3 1.9 1.8 3.1 2.4zm2.9 1.2l0.2 0.1q-0.1 0-0.2-0.1zm6.8-0.3c0.3 0.8 0.4 1.5 0 1.5-0.7 0-2.3-1.1-2.3-1.1zm-0.8-1.9c-0.4-0.4 2.7 1.2 3.9 1.4q0 0 0 0l-3.1 0.5c-0.2-0.9-0.6-1.8-0.8-1.9zm5.2-0.5c0 0 3.5 0.6 4.3 1l-5.1 0.8c0.7-0.4 0.8-1.8 0.8-1.8zm-0.8 1.8q-0.2 0.1-0.5 0.1zm-19.3-1.5c0 0-0.3-2-0.4-2.8zm-23.9 9.5c-0.2-0.4 0.9-2.1 0.5-2.9 0 0 0.6 0.6 1.3 0.7 0.6 0.1 0.4-2.2 0.4-2.2l0.7 0.3c0 0 2-0.9 1.7-1.7-0.4-0.8 1.3 1.1 1.3 1.1 0 0 1.1-1.1 1.1-1.6 0-0.4 1 0.8 1.3 1.1zm8.3-5.2l1.4-1c-0.1 0.8-1.4 1-1.4 1q0 0 0 0zm1.5-1.1c0-0.3 0.2-0.4 0.6-0.3l-0.7 0.4q0.1 0 0.1-0.1zm0.6-0.3l1.8-1.1c0.1 0.6-0.6 1.7-0.6 1.7 0 0-0.7-0.4-1.2-0.6zm-17.4 5.1c0.9 1.3 0 3.3 0 3.3zm-22.9 9.6c0.1-1 0.5-3.5 0.1-3.9-0.5-0.4 0.9 0.4 2.1 0.6zm7.6-5.3c1.8 0 2.4 0.6 3.6 1.7zm-15.2 4.9c0.2 0.9-0.2 2.5-0.5 3.2zm24.3 50.3l1.2-2.5 1.2 2.7zm2.4 0.2l0.7 0.1-0.4 0.8zm1.4-1.5l0.4 0.8 2.3-2.5 2.5 3.7-5.8-0.5zm44.7-14l1.6-3.2 1.7 0.9zm3.4-2.3l0.7-0.5-0.3 0.7zm1.5-2.9l1.5 0.9-2.3 1.5zm1.4 0.9l1.6-1.1-0.7 1.6zm2.2-2.4l0.9 0.3-1.5 1.1zm0.9 0.2l1.8-1.2-0.2 1.6zm1.8-1.7c0 0 0.2 0.1 0.4 0.2l-0.4 0.3zm0.3 0.2l3.5-2.4c2.1 0.9 0.6 2.4 0.6 2.4l-2.1-1c0 0 0.5 3.4 0 2.6-0.4-0.5-1.4-1.3-2-1.6z"/>
			<path id="Layer" fill-rule="evenodd" class="s8" d="m546 227.3l-2 3.5-3-1-1.4 2.9-3.4-2.4-1.5 1.1-3.1-1.8-2.2 1.3-1.7-3.7-1.9 2.2-2.3-3.3m-59.5-7.7c0 0 1.3-2.3 0.8-3.3-0.4-0.8 1.4 0.6 2.3 1.4zm3.1-2l0.8-0.4c-0.2 0.5-0.3 0.9-0.3 0.9 0 0-0.2-0.2-0.5-0.5zm0.8-2.9c-0.3-0.5 0.8 0.4 1.9 1.3l-1.9 1.2c0.1-0.8 0.3-1.8 0-2.5zm1.9 1.3l2.2-1.4c0.1 1.3-0.3 3.2-0.3 3.2 0 0-1-0.9-1.9-1.8zm1.9-2.5c-0.4-0.4 0.6-0.1 1.8 0.2l-1.5 0.9c0-0.5-0.1-0.9-0.3-1.1zm1.8 0.2l11.5-7.1 0.3 3-3.3-0.2 1.5 2.8c0 0-4.1-2.3-3.1-1.3 1 1 0 3.5 0 3.5 0 0-4-2.5-3.3-1.5 0.8 1.1-1.2 1.6-1.2 1.6 0 0-1.3-0.4-2.4-0.8zm40.9 36.7l2.2-1 0.4 0.4zm2.6-0.7l2.9-0.8-1.4 2.3zm3.6-1.8l0.7 0.7-1.4 0.4zm0.7 0.6l2.3-0.5-0.4 2.3zm2.2-0.7l0.2 0.1h-0.2zm0.2 0.1l8.3-2.1-0.3 1.5-1.5-0.5-0.3 2.3-3.1-1.6-0.5 1.5z"/>
		</g>
	</g>
	<path id="Layer" class="s9" d="m464.8 357.3q-0.9-1.5-1.7-3-0.8-1.5-1.6-3.1-0.7-1.6-1.3-3.2-0.7-1.6-1.2-3.3l41.1-36.2 41.1 36.1c-1.4 4.2-3.3 8.7-6 12.9l-0.3 0.6q-0.4-0.2-0.8-0.3-0.4-0.2-0.8-0.3-0.4-0.2-0.7-0.3-0.4-0.2-0.8-0.3c-0.3-0.1-1.3 1.2-2.4 1.3-1.4 0.2-2.6-1.2-2.6-1.2 0 0-1.8 1.5-3.6 1.2-1.9-0.2-2.6-1.3-2.6-1.3 0 0-1.9 1.5-3.2 1.2-1.3-0.3-2.1-1.1-2.1-1.1 0 0-1.2 1.4-2.8 1.1-1.5-0.3-2.9-1.1-2.9-1.1 0 0-2.4 1-3.9 1.2-1.5 0.3-2.9-1.3-2.9-1.3 0 0-2 1.3-2.7 1.3-0.8 0-3.6-1.3-3.6-1.3 0 0-3 0.9-4 0.9-1 0-3.9-1.2-3.9-1.2 0 0-2.8 0.7-4 0.7-1.3 0-3.2-0.7-3.2-0.7 0 0-2.3 1-3.5 0.7q-0.3 0-0.6-0.1-0.3-0.1-0.6-0.2-0.3-0.1-0.6-0.2-0.3-0.1-0.6-0.2c-0.2-0.1-2.5 1-4.1 0.7-1.5-0.2-3.3-1.3-3.3-1.3 0 0-0.3 0.8-3.3 1.3 0 0 0 0-0.1 0z"/>
	<g id="Layer">
		<path id="Layer" class="s10" d="m500.1 266.9v41.6l-41.1 36.4c-4-11.6-4.3-21.9-4.3-26.4v-51.6c0 0 45.4 0 45.4 0z"/>
		<path id="Layer" class="s11" d="m500.1 266.9v41.6l41 36.4c4-11.6 4.3-21.9 4.3-26.4v-51.6c0 0-45.3 0-45.3 0z"/>
		<g id="Layer">
			<path id="Layer" class="s6" d="m473.6 348.7c3 1.7 2 1.1 8.4 3.4 5.2 1.8 11.3 2.7 20.1 2.7 7.8 0 12.1-0.6 14.6-1.3 2.5-0.7 3.1-1.8 3.1-1.8l-6.4 6.5c0 0-25.5 1.4-30.2-1.6-1.8-1-5.7-4.1-9.6-7.9z"/>
			<path id="Layer" fill-rule="evenodd" class="s12" d="m511.1 350.2c8.1-8.9 0-13.6 0-13.6m-26.3 16.4l1.3-15-11.8 11.2zm6.2 1.1v-24.9m20.1 25.1v-26.6m-10.1 27.1v-28.6"/>
			<path id="Layer" fill-rule="evenodd" class="s13" d="m490.9 330.6l-5.3 1.7 5.3 0.5c0 0 0-2.2 0-2.2zm10-3.9l-5.6 2.1 5.6 0.1zm10.2 1.6l-5.6 2.1 5.6 0.2c0 0 0-2.3 0-2.3zm3.6 16.6l3 0.6c1.1-2.4 0-6.2 0-6.2 0 0-3.6-0.1-3.3 1 0.6 2 0.3 4.6 0.3 4.6z"/>
			<g id="Layer">
				<path id="Layer" class="s14" d="m476.1 347.7l10-9.7-0.5 5.8c0 0-5.1 3.3-5.1 5.7 0 0-4.4-1.8-4.4-1.8zm5.3 2c0 0 1.1-3.1 3.9-4.6l-0.3 6.1c0 0-3.6-1.5-3.6-1.5zm14.4-16.9c0 0 4.1-0.5 7.1 0 0 0-0.5 4.1 0 4.9 0 0-5.6-1.3-7.9 0.7 0 0-0.7-3.8 0.8-5.6zm-8.7 1.1c0 0 4.1-0.6 7.2 0 0 0-0.8 4.5-0.3 5.3 0 0-4.6-2.6-6.9-0.5 0 0-1.5-3.1 0-4.8z"/>
				<path id="Layer" class="s15" d="m486.8 339.2c0 0 4.1-0.5 7.2 0 0 0-0.5 4.1 0 4.8 0 0-5.4-1.2-7.6 0.8 0 0-1.1-3.8 0.4-5.6zm8.2-0.8c0 0 5.9-0.7 8.9-0.2 0 0-1.2 3.3 0.3 5.6 0 0-6.3-1.7-8.7 0.2 0 0-2-3.8-0.5-5.6zm-8.6 6.4l7.9 0.6c0 0-0.8 5.8-0.3 6.5 0 0-6.4-1.5-7.6 0.6 0 0-2.1-5.3 0-7.7q0 0 0 0zm8.9 0c0 0 6.8-0.5 10 0 0 0-1.8 4.4 0.2 8.2 0 0-9-2.6-10.2-0.5 0 0-2.1-5.3 0-7.7zm10.4-12c0 0 4.1-0.5 7.2 0 0 0-0.5 4.1 0 4.9 0 0-5.6-1.3-7.9 0.7 0 0-0.8-3.8 0.7-5.6zm0 5.6c0 0 4.1-0.4 7.2 0 0 0-0.5 4.1 0 4.9 0 0-5.6-1.2-7.9 0.7 0 0-0.8-3.8 0.7-5.6zm0.5 5.9c0 0 4.1-0.5 7.2 0 0 0-1 6.4-0.5 7.2 0 0-4.7-2.2-6.9-0.3 0 0-1.3-5.1 0.2-6.9z"/>
				<path id="Layer" class="s16" d="m514.7 344.8c0 0 1.3 4.8 3 5.4l-2.3 2.8c0 0-2.7-2-3-4.3 0 0 1.8-2.1 2.3-3.9z"/>
			</g>
		</g>
		<g id="Layer">
			<path id="Layer" class="s17" d="m535 357.9c-6.5 10.9-17.3 21.2-34.9 27.6-18-6.5-28.9-17.2-35.3-28.1v-0.1c3-0.5 3.3-1.3 3.3-1.3 0 0 1.8 1.1 3.3 1.3 1.6 0.3 4.1-0.7 4.1-0.7 0 0 1 0.5 2.4 0.7 1.2 0.3 3.5-0.7 3.5-0.7 0 0 1.9 0.7 3.2 0.7 1.2 0 4-0.7 4-0.7 0 0 2.9 1.2 3.9 1.2 1 0 4-0.9 4-0.9 0 0 2.8 1.3 3.6 1.3 0.7 0 2.7-1.3 2.7-1.3 0 0 1.4 1.6 2.9 1.3 1.5-0.2 3.9-1.2 3.9-1.2 0 0 1.4 0.8 2.9 1.1 1.6 0.3 2.8-1.1 2.8-1.1 0 0 0.8 0.8 2.1 1.1 1.3 0.3 3.2-1.2 3.2-1.2 0 0 0.7 1.1 2.5 1.3 1.9 0.3 3.7-1.2 3.7-1.2 0 0 1.2 1.4 2.6 1.2 1.1-0.1 2.4-1.3 2.4-1.3 0 0 2.4 0.7 3.2 1z"/>
			<path id="Layer" fill-rule="evenodd" class="s18" d="m533.4 360.4c-1.4 0.1-1.6-0.9-1.6-0.9 0 0-1.9 1.6-3.7 1.4-1.9-0.3-2.8-1.6-2.8-1.6 0 0-2 1.7-3.3 1.4-1.3-0.2-2.3-1.2-2.3-1.2 0 0-1.2 1.5-2.8 1.2-1.6-0.2-3.1-1.2-3.1-1.2 0 0-2.5 1.1-4.1 1.4-1.6 0.2-3-1.6-3-1.6 0 0-3.7 1.3-4.4 1.3-0.9 0-3.6-1.3-3.6-1.3 0 0-1.8 1.2-2.8 1.2-1.1 0-4.2-1.3-4.2-1.3 0 0-2.8 0.7-4.2 0.7-1.3 0-3.3-0.7-3.3-0.7 0 0-2.4 1-3.8 0.7-1.3-0.3-2.4-0.7-2.4-0.7 0 0-2.6 1-4.2 0.7-1.6-0.3-3.5-1.3-3.5-1.3 0 0-0.3 0.6-3.5 1.3h-0.1"/>
			<g id="Layer">
				<path id="Layer" class="s19" d="m474.4 364.3c0 0-0.2 0.6-2.7 1.1-0.1 0-0.7 0.2-0.7 0.2q0.4-0.1 0.6-0.1 0 0-0.1 0-0.1 0-0.2 0.1-0.1 0-0.2 0-0.1 0.1-0.2 0.1c2.8 4 7 7.7 11.4 10.6 4.4 3 9.4 6.5 18 9 8.9-3.5 11.3-4.8 17.2-8.8 5.9-4.3 9-6.9 12.2-11.3-2.5 1.4-2.2 1.4-3.5 1.2-1.3-0.2-2.3-1.2-2.3-1.2 0 0-1.2 1.4-2.8 1.2-1.6-0.2-3.1-1.2-3.1-1.2 0 0-2.1 1.4-4.2 1.3-1.6-0.1-2.9-1.5-2.9-1.5 0 0-3.7 1.2-4.5 1.2-0.8 0-3.5-1.2-3.5-1.2 0 0-1.8 1.2-2.8 1.2-1.2 0-4.2-1.4-4.2-1.4 0 0-2.8 0.8-4.2 0.8-1.3 0-3.3-0.8-3.3-0.8 0 0-2.4 1.1-3.8 0.8-1.3-0.3-2.4-0.8-2.4-0.8 0 0-2.6 1.1-4.2 0.8-1.6-0.3-3.6-1.3-3.6-1.3z"/>
				<path id="Layer" class="s19" d="m500.3 385.3c9.2-3.8 10.9-4.9 16.5-8.3-0.9 0-3.8-0.9-2.8-1.2 0 0-1.1 1-2.2 1-1.1 0-4.1-1.3-4.1-1.3 0 0-2.9 0.7-4.2 0.7-1.3 0-3.3-0.7-3.3-0.7 0 0-2.5 1-3.8 0.7-1.4-0.2-2.4-0.7-2.4-0.7 0 0-2.8 1-4.3 0.7-1.6-0.2-3.5-1.3-3.5-1.3 0 0-2.3 1.3-3.8 1.4 4.5 3.3 9.2 6.5 17.9 9z"/>
			</g>
		</g>
		<g id="Layer">
			<path id="Layer" class="s6" d="m461.7 270.5c-0.6 0-1.4 0.3-2.6 1.4-1.9 1.8-2.6 3.6-0.1 5.7l12.5 11.3c1.8 1.8 4.3 2.1 5.4 3.1l12.7 12.9c1.6 1.4 2.3 2.4 1.4 3.5-1 2 0.1 2.2 0.3 2.3 1.8 0.4 0.8-0.7 1-1.3 0.3-1.1 1.6-2.2 2.5-2.7 0.6-0.2 1-0.1 1.1 0.3 0.6 0.2 1.1-0.6 0.3-1.5-0.7-1-1.7 0.6-3 0.2 0 0-1.8-1.1-2.3-1.9-1.1-1.2-2.5-2.3-3.3-3.3-0.8-1-4-5.2-8.8-10-1.4-0.9-1.1-4.4-2.1-5.4-0.1-0.8-9.7-10.3-13.1-13.7-0.7-0.5-1.2-0.9-1.9-0.9z"/>
			<path id="Layer" fill-rule="evenodd" class="s18" d="m462.4 275.6l13 12.8"/>
			<path id="Layer" class="s20" d="m480 281.5c0.2-0.4 0.6-1.4 1.1-2.5 0.2-0.4 3.7-6 5.4-6.2 0 0 10.9 8 10.9 8.1 0.1 0.4-4.7 7.5-5.1 7 0 0-12.8-5.4-12.3-6.4z"/>
			<path id="Layer" class="s21" d="m486.9 283.3c-1.5-1.1-3.9-2.3-5.9-3.6l-0.9 1.9c0.7 0.8 9.8 5 11.3 5.8 0 0-1.8-2-4.5-4.1z"/>
			<path id="Layer" fill-rule="evenodd" class="s22" d="m481 279.5c1.1 0.8 3.4 2.2 4.8 3 2.6 1.9 4.3 3.9 6.3 5"/>
			<g id="Layer">
				<path id="Layer" class="s6" d="m458.9 313.4l24.8-30.7c0.5-0.4 2.8-0.4 3.1 1.9l-23.5 32.1c0 0-2.7-0.3-4.4-3.3zm83.2 0.4c-0.9 0.6-2.3 0.8-2.3 0.8-1.6-1.9-3-3.9-5.3-6.4l-24.7-30.4 2.5-2.5 22.3 26.1c0.7 0.7 4.6 4.8 8.3 9.6 0 0 0.3 1.9-0.8 2.8z"/>
				<path id="Layer" class="s20" d="m518.2 281.6l-4-4.7c0 0-3 0.4-3.6 2 0 0-2.2 3.6-8 4 0 0 1.7 6.7 8.4 10.3 0 0 2.5-6.9 4.8-8.1 0 0 2.5-1.8 2.4-3.5z"/>
				<path id="Layer" fill-rule="evenodd" class="s6" d="m508.2 302.7c-0.5-0.2-1.1 0-2 0.5-0.7 0.5-1.7 0.3-1.6-0.7 0.1-0.8 0-0.7 1.1-1.4 1.5-0.8 3.5-0.9 4.7-0.5 0 0-2.2 2.1-2.2 2.1zm25.6-25.3c-1.3-2.8-0.8-4.6 0.8-5.2 1.7-0.7 1.7 0.6 1 1.4-0.7 0.8-0.5 1.5-0.3 2.2 0 0-1.5 1.6-1.5 1.6z"/>
				<path id="Layer" class="s20" d="m507.7 303.3l28.1-27.9 6.9 7.4c0 0-1.4-0.6-2-0.2-0.5 0.4 0.6 1.8 0.6 1.8 0 0-1.3-0.5-1.9-0.1-0.7 0.4 0 2 0 2 0 0-1.2-0.9-1.7-0.5-0.5 0.4 0 2.2 0 2.2 0 0-1.5-0.5-1.9-0.1-0.4 0.4 0 2 0 2 0 0-1.5-0.8-2.3 0-0.8 0.8 0.4 1.8 0.4 1.8 0 0-1.9-0.7-2.7 0.4-0.7 1.1 0.1 2.2 0.1 2.2 0 0-1.5-0.8-1.9-0.4-0.4 0.4 0 2.2 0 2.2 0 0-1.3-0.8-2.2 0.2-0.8 1 0.1 1.9 0.1 1.9 0 0-1.2-0.8-1.9-0.4-0.6 0.4 0.2 2.2 0.2 2.2 0 0-1.2-0.9-2.1 0-0.8 0.9 0 1.9 0 1.9 0 0-1-1-2.1 0-0.9 1 0 2.1 0 2.1 0 0-1.5-0.8-2 0-0.7 0.7 0.1 1.8 0.1 1.8 0 0-1.1-0.7-1.9-0.3-0.7 0.4 0 2.1 0 2.1 0 0-1.1-1.3-1.6-0.6-0.5 0.7 0.1 2.3 0.1 2.3 0 0-1-1.3-1.6-0.6-0.6 0.6 0.4 2 0.4 2 0 0-1.9-0.9-1.4-0.9z"/>
			</g>
			<path id="Layer" class="s23" d="m534.2 277.7l-2.2 2.1 0.5 7.6c0 0 0.4-2.2 1.1-0.7 0 0 0.2-1.8 0.7-1.5-0.4-0.2-0.1-7.5-0.1-7.5zm-4.1 4l-1.6 1.6 0.5 7.5c0 0 0.5-2.9 1.2-0.6 0 0-0.1-1.9-0.1-2.6 0 0.5 0-5.9 0-5.9zm-17 16.9l-1.5 1.6 0.4 4.5c0 0 0.4-2.9 1.1-0.6 0 0-0.2-1.9-0.2-2.6 0 0.5 0.2-2.9 0.2-2.9z"/>
			<g id="Layer">
				<path id="Layer" fill-rule="evenodd" class="s24" d="m511.2 279.8c1 1 4 4.8 4 4.8m-2.7-2.8c-0.2 0.6-0.5 2.2-1.4 3.1zm0.5 0.4c-0.1 0.3-0.1 1.6-1.5 2.8zm0.5 0.6c-0.2 0.6-0.3 1.1-0.7 1.6zm0.2 0.6c0 0.4-0.2 0.5-0.3 0.7zm-0.3 0.8l-0.1 0.1q0.1-0.1 0.1-0.1zm-3.2-2.6c-0.4 0.4-3.1 2.2-4.6 2.8zm-0.8 1c-0.4 0.4-2.1 1.7-3.1 2.1zm-0.4 1.2q0.1 0 0.2-0.1zm-2.2 1.6l2.2-1.6c-0.6 0.5-1.5 1.3-2.2 1.6zm1.7-0.5c-0.3 0.5-0.9 0.8-1.4 1.1z"/>
				<path id="Layer" fill-rule="evenodd" class="s25" d="m492.1 285.9c0.4-0.5 0.9-1.7 1.6-2.7 0.9-1.3 1.3-1.5 1.7-2"/>
			</g>
		</g>
	</g>
	<g id="Layer">
		<path id="Layer" class="s26" d="m400.5 362.5c1.4 0.6 0-4.7 0.4-6.7 0.6-2.1 4.7 5.2 6.7 6.1 2.1 1.1 14.8-5 14.8-5l3-5.7 1.7 4.6c0 0 3.5-4.1 4.5-5.6 1.1-1.5 0 3.1-1 4.6-1.1 1.5 3 2.1 2.5 5.1-0.4 3.1 4.1-2.1 4.1-2.1l11.8 1.1c0 0 2-7.2 5.1-11.2l1 4.5 4.8-4.9c5.4 14.2 16.8 29.7 40.2 38.2 21.9-8 33.2-22.2 39.1-35.7l6.5 6.8c0 0 5.2-1.5 6.1-2.1 1.1-0.5 12.1 3.9 12.1 3.9 0 0 2 0.8 3 1.5 1.1 0.8 0.3-3.3 0.3-3.3 0 0 5.6 1 5.1 4.1 0 0 1.3-2.9 2.3-3.3 1.1-0.5 3.5 2.5 4.1 3.6 0.5 0.9 12.5 2.4 14.2 3.5 0 0 1.4 1.5 1.4 2.5 0 0 2.5-0.2 4.5-0.2 0 0-1.5 0.7-1.5 2.3 0 1.6-0.8 2.8-2.3 3.5-1.5 0.8 0 1.4 2 1.6 2.1 0.2 0 2.8-4.1 4.3 0 0-0.9 2.3 0.8 3.1 0 0-3.5 0.3-4.1-0.8 0 0-1.2 2.4-1.2 3.6 0 0-3.8-1.2-4.9-1.8 0 0-1.5 1.5-0.4 2.3 0 0-7-0.8-8.3-3.3 0 0-2.5 0.7-2 1.6 0 0-4.8-3.3-6.4-3.3l-1 1.7c0 0-3.3-2-4.4-2-0.9 0-0.2 1.5-0.2 1.5l-4.6-2.9-1.8 2.9c0 0-3.8-1.8-4.9-2.6-0.9-0.7-1.2 1.5-1.9 1.8 0 0-1.6-2.1-3.7-1.8 0 0-0.7 2.6-0.4 3.4 0 0-5.9-1.3-7-1.6-1-0.3-0.4 1.3 0 2.3 0 0-4.3-1.2-5.3-2l-0.3 2c0 0-3.6-0.3-4.3-1l-2.3 3.1h-3.3l-0.8 2.8c0 0-5.7-2.2-6.3-0.7-0.4 1-0.3 2.5-0.3 2.5l-4.8-0.4-1.4 2.6c0 0-6.4-2.5-7.9-1.5 0 0-3 1.9-4.3 2.4-1.7-1.7-3-2.3-4.6-2.9-1.7-0.2-5.3 2-6.7 1.3 0 0 0-1.8-1-2.3-1-0.5-2.8-0.5-3.5 0.8 0 0-0.8-1.1-2.1-3.1-1.2-2.1-3 0.2-3 0.2l-0.3-2.5-3.5-0.3c-2.1-0.2-2.6-2-2.6-2 0 0-5.4 0.5-6.2 0.2l1.4-1.2c0 0-7.5 1.5-9 1-1.6-0.5 1.7-2.6 1.7-2.6 0 0-6.8-1.7-8.1-2-1.3-0.3-8.7 1.2-9.7 1.2-1.1 0-1.5-1.7-1.5-1.7 0 0-1.8 1.5-3.4 2 0 0-1.2-3-0.4-3.3 0 0-4.9 1.3-5.2 2.6 0 0-1.2-2-1-2.9 0 0-2.3 3.6-3.3 4.4-1.1 0.7-0.2-1.8-0.2-1.8 0 0-2.9 3.6-3.9 3.9v-2.6c0 0-8.2 4.4-10.5 3.8 0 0 0-1.8 0.8-2.3l-5.1-0.3c-1.3-0.1-2.8-0.7-4.1-1-1.2-0.2 1.8-1.5 3.9-1 0 0-5.7-2-7.4-1 0 0-0.8-2.1 2.3-2.8 0 0-3.9-3.8-6.2-3.6 0 0 2.5-1.5 4.6-0.7 0 0-2.3-6.5-3.9-7.2 0 0 5.5-1 7-0.2z"/>
		<g id="Layer">
			<path id="Layer" class="s6" d="m392.6 251.1l69.1-35.8c0.3-1.9-0.7-3.3-1.8-4.8-19.8 9.7-37.8 21.5-59.7 28.6-1.3 0.5-12.2 5-17.8 11.8-1.8 1.8-1.9 4.4-1.9 4.4 0 0 0.2 3 0.8 3.8 0 0 0.2 0.8 1.2 1.5 0 0 0.6 0.3 1.1 0.2 0.5 0.1 1.3 0.1 2.4-1.9 1.2-1.9 4.9-6.3 6.6-7.8z"/>
			<path id="Layer" class="s20" d="m448.2 215.7l9-4.3c0 0 3 2.3 2.7 4.8 0 0 0.7 5.9 8 10 0 0-6.2 7.7-17 8.3 0 0 1.2-10.1-1-13 0 0-0.4 0.3-0.3-0.2 0.4-1-0.2-4.4-1.6-5.1-0.1-0.1 0.1-0.4 0.2-0.5z"/>
		</g>
	</g>
	<path id="Layer" fill-rule="evenodd" class="s27" d="m450.6 220.9c0 0 6.2-3.3 8.1-4m-3 6.7c-0.6-1.6-0.1-3.9 0-4.8zm-0.7-0.1c-0.9-2.3-0.1-4-0.1-4.5zm-1.1-1.4c-0.3-1-0.2-1.6 0-2.6zm-0.7-0.7c0-0.4-0.2-0.7 0-1.3zm9.9 4.9c-1.5-1.6-4-5.6-4.3-6.4zm-1.3 0c-1-1-2.4-3.8-2.7-4.5zm-1.1 0.6c-0.7-0.9-1.5-2.6-1.9-3.6zm-0.7 0.7c-0.6-0.7-1-1.6-1.2-2.4z"/>
	<g id="Layer">
		<path id="Layer" class="s6" d="m520.9 198.9c-1.3 0.2-2.4 1-3.7 3.2-2.2 4.3-1.7 6.6 5.1 9.6l25.4 12.4c5.1 2.5 6.9 0.2 9.8 1.4l50.1 25.6c4.3 1.8 6.7 2.4 6.1 4.7-0.1 2.8 0.9 3.2 1.6 3.4 1.1 0.4 1.9 0.7 2.1-0.6 0.2-0.2-0.1-0.6-0.4-1.1-0.4-0.6-0.7-1.2-0.6-2 0.1-0.7 0.1-1.1 0.4-1.5 0.2-0.3 0.7-0.8 1.5-1.7 0.4-0.4 0.8-0.6 1.2-0.7 0.3 0 0.7 0.1 1 0.3 0.5 0.3 0.9 0.6 1.3 0.9 1.7-0.1 0.2-2.5-1-3.4-2.5-1.2-2.8 1.5-5.4 1.2 0 0-4.8-1.8-6.5-3-3.1-1.8-7.5-3.8-8.5-4.9-3.2-0.6-27.3-14.1-41-20.9-1.4-1.3-2.2-5.8-5.1-7.3-0.9-1.2-19.3-9.7-29-14.5-1.8-0.7-3.2-1.2-4.4-1.1z"/>
		<g id="Layer">
			<path id="Layer" class="s28" d="m439.7 221.6c-0.2 0.6-0.7 0.2-0.7 0.4-0.4 2-0.3 3-0.7 4.2-0.7 1.3-3.1 2.5-3 2.5-1.9 0.5-4.2 2.8-7.9 0.7-0.2-0.1-0.3-0.3-0.5-0.5 0 0 1 3.9-2.8 5.8-1.3 0.7-14.7 7.7-14.7 7.7 0 0-1.4 2.6-0.5 6.1 0.1 0.6 0.3 1-0.3 1.4-0.8 0.7-2.4 2.6-3.4 5.6 0 0-2.8-1.2-2.8-3 0-1.8 1.1-2.8 1.4-4.1 0.3-1.2 1-4.4 0.7-5.3-0.4-1.1-2.1-1.4-2.8-1.8-0.6-0.4-1.3 0.4-1.2 1.2 0.1 1 0.7 0.8 1.5 1 0 0-0.9 1.8-0.8 3.1l-8.6 4.5c0 0 1.1 1.5 1.5 2.1 0.4 0.7 1.2 9.5 3.8 13.7 2.6 4.2 3.4 3.1 4 3.6 0.5 0.5 1.2 1.3 1.9 1.8 0.7 0.5 3.6 0.8 4.2-0.8 0.6-1.5 1.1-2.5 2.9-3.9 1.8-1.4 5.5-5 5.5-6.7 0 0 2.2 6.3 1.9 11.5 0 0 8 1.6 15.1 1.8 7.1 0.1 10.7-1.4 10.7-1.4 0 0 1-6 0.6-7.1 0 0 1.2 3.9 2 5.2 1 1.6 2 4.9 4.1 5.1 2 0.1 3.7-2 3.9-2.8v-6.3h8.1c0-0.1 3.6 1.4 4.7 1.2 1.1-0.1 1.8-1.2 0.8-1.6l-0.4-0.2c1 0 2.4 0.6 2.4 0.6h3.9c0.1-0.1 0-0.4-0.1-0.5-0.2-1.1-2.3-2-3.8-2.7-1.6-0.6-3.3-1.2-4.4-1.3-1.8-0.2-3.1-0.1-5.8 0.3-0.8 0.1-3.6 0.4-5.4 1.3-0.5 0.3-1 0.4-0.8-0.9 0.3-1.3 0.2-7.3-1.2-9.9-1.1-1.8-1-3.3-0.8-4.8 0.1-1.5 0.2-6.7 0-8.3-0.3-1.5-2.3-3.6-6.1-4-3.6-0.5-6.7-3.5-6.9-5.8-0.3-2.4 0.4-6.8 0.8-8.7z"/>
			<g id="Layer">
				<path id="Layer" class="s1" d="m423.5 210.9c-0.6 3-0.6 5.7-0.5 8.6 0.1 2 1 4.3 1.9 6.3 0.5 1.3 1.3 2.9 2.5 3.6 3.4 2.2 6.5-0.2 8.3-0.9 0.9-0.3 2.2-1.5 2.6-2.3 0.4-1.2 0.2-2 0.7-4.2-0.1 0.1 0.8-0.4 0.7-0.4 0.8-1.4 0.6-1.9 1.1-2.8 0.5-1-0.5-2-1.7-1.8 0.6-1.8 1-3.8 0.4-5.5-0.2-0.6 0.5-2.1-0.6-1.7-4.2 1.7-9.3 1.3-13.8 1.3-0.4 0-0.7-0.8-1.3-0.7-0.1 0-0.2 0.3-0.3 0.5z"/>
				<path id="Layer" class="s29" d="m423.2 212.5c-0.5-0.4-0.6-1.2 0-3 0.6-1.8 0-1.9 1-3 1.1-1 0.8-1.5 1.4-1.8 0.7-0.2 2.7-0.2 3.4-0.5 0.5-0.2 1.4-0.6 2.7-0.8 1.4-0.3 4.3-0.2 5.6 0.6 1.4 0.7 2.4 2.6 3.2 3.3 1 0.6 1.6 3.4 1.4 7.4-0.3 4-1.1 3.2-1.1 3.2 0 0-1.1-1.9-2.1-0.3 0 0 0-1.5 0.2-2.6 0.1-1.2-0.5-3.3 0.1-4.7 0 0-5.4 1.7-8.1 1.6-2.9-0.2-6.9-0.8-7.1-1.5 0 0-0.6 2.1-0.6 2.1z"/>
				<path id="Layer" class="s30" d="m425.9 209.2c-0.3-0.6-1.7-2.7-0.6-3.3 1.1-0.6 0.4 2.5 1.9 3.2 0 0-0.5 1.4-1.3 0.1z"/>
				<path id="Layer" fill-rule="evenodd" class="s18" d="m429 217c-0.4 1.6-0.6 2-0.8 2.9m9.9 1.5c0.2 0.6 0.4 0.3 0.8 0.4zm2-2.2c0.4-1.4-0.3-1.7-0.7-1.1z"/>
				<path id="Layer" fill-rule="evenodd" class="s18" d="m430.2 220.6c0.2 0.5 0.3 1.3-0.3 1.6-0.5 0.2-0.8-0.4-1.5-0.3-0.2 0-0.8 0.2-0.8 0.5-0.8-0.1-1.4 0.4-1.9-0.4-0.4-0.6 0.4-1.7 0.6-2.4 0.4-1.3 1.2-3.4-0.2-3.9-0.8-0.4-1.7-0.7-2.6-1m6.6 1.7c0.1-0.4 0.9-0.7 1.4-0.8 2-0.4 3.4-0.7 5.1 0.4zm1.1 10c-1.6 0.4-3.3 0.7-4.9-0.2zm-4.8-0.9c0.8-0.4 1.1-0.8 2-0.3 0-0.1 1-0.4 1-0.4 0.8 0 1.3 0.3 2 0.8zm-0.1 0.3c0.9-0.3 3.2-0.3 5.1 0.1z"/>
				<g id="Layer">
					<path id="Layer" class="s31" d="m423.4 217c0.7-0.1 1.5-0.9 3 0.3 1 0.6-1.7 1.3-1.2 1.2-1.3 0.2-1.7-0.5-1.7-1 0-0.2-0.2-0.5-0.1-0.5zm7.8 0.7c0.7-1.3 1.7-1 2.7-0.7 0.9 0.3 0.7 0.1 1.5 0.5-1 0.2-0.7 0.3-1.5 0.7-0.9 0.4-1.6 0.6-2.2 0.2-0.2-0.2-0.7-0.5-0.7-0.9 0 0.1 0.1 0.2 0.2 0.2z"/>
					<path id="Layer" class="s32" d="m424.8 218.1c0.4 0 0.6-0.4 0.6-0.7 0-0.5-0.2-0.9-0.6-0.9-0.5 0-0.8 0.4-0.8 0.9 0 0.3 0.3 0.7 0.8 0.7zm8 0.2c0.4 0 0.7-0.4 0.7-0.9 0-0.4-0.4-0.7-0.7-0.7-0.4 0-0.7 0.3-0.7 0.7 0 0.5 0.4 0.9 0.7 0.9z"/>
				</g>
			</g>
			<g id="a">
				<g id="Layer">
					<path id="Layer" fill-rule="evenodd" class="s18" d="m467.6 263.9c0.6 0.4 1.5 0.5 2.2 0.8 0.6 0.3 1.3 0.7 1.9 1 0.7 0.3 1.1 0.6 1.7 1.2m-6.5-1.1q0.2 0 0.3 0.1c0.3 0.2 0.5 0.3 0.8 0.5zm-0.6-0.2c-0.1 0-0.1-0.1-0.2-0.1-0.9-0.1-1.7-0.5-2.3-1.3l3.1 1.6c-0.2-0.1-0.4-0.1-0.6-0.2zm-61.1-10.1c0.9 0.6 3 2.1 3.1 4.8 0.2 1.4 1 2.8 1 2.9zm4.1 7.7q0 0 0 0zm-6.7 5.2c-5-5.6-5.1-10.9-5.6-12.5zm-4.4-17.2c-1.1-0.8-0.6-1.7-0.2-2.8zm13.5 10c0.3-0.9 1-1.4 1.7-1.8zm1.7-1.8l2.6-2.7c0 1.5-1.4 1.9-2.6 2.7z"/>
					<path id="Layer" fill-rule="evenodd" class="s18" d="m416.4 260.9c-0.3-2.6-0.8-4.1-0.4-8 0.2-0.8 0.3-2.8 0.3-4.7-0.1 2.2-0.8 5-3.7 5.8m3.7-5.8c0-1.6-0.3-2.9-0.3-2.9 0.2 0.7 0.2 1.8 0.3 2.9zm28.4 17.5c0-3.7 0.9-5.8 0.9-5.8 1.1-5.2-1.1-7.2-0.2-8.5 0.7-1.2 1.9-3.6 0.4-8.3 0 0 2.6 9.8-4.2 9.8-3.2 0-4.9-0.6-5.8-1.2zm-8.8-13.9l-0.9-1.5c0 0-0.1 0.8 0.9 1.5z"/>
					<path id="Layer" fill-rule="evenodd" class="s18" d="m431.3 250.1c-1.5 1.3-4.2 3.1-6.8 3.1-8.5 0-8.5-5.9-8.5-7.9m17.4 2.3c-0.3-1.9-0.3-4.1-0.3-6.5zm-13-9.7c2.3-0.3 4.1-0.6 8.4-0.6zm12.2-0.5c-3.9-0.5-3.1-3.8-3.6-5.9zm3.3-2.6c0.2-1 0.2-2.5 0.8-4.1zm0.5 2.6q-0.2 0-0.3 0zm8.2-0.3l-8.2 0.3c1.7-0.1 4.6-1 8.2-0.3zm4.6 27.1c-2.4-2.3-2.6-4.3-3.3-5.8zm-29.6-10.6q0 0.3-0.1 0.9zm-0.3 8.7c1.2 3.3 1 7.1-1 10.3l0.7-11.2q0.1 0.5 0.3 0.9zm-0.3-0.9c-0.6-2.5 0.2-5.2 0.5-6.8zm5.4-6.6q-0.1 0.3-0.3 0.6zm-0.3 0.6l-2.1 3.8c0.3-1.2 1.3-2.5 2.1-3.8zm4.1 2.2q0 0.1 0 0.2zm-0.1 0.2l-1.4 16c0.4-4.7-2.9-6-2.9-6 1.7-1.9 4.1-8.6 4.3-10zm-1.5 16.1l0.1-0.1q-0.1 0.1-0.1 0.1zm7.7-17.3c-1-0.8-0.8-1.1-0.8-2.3zm2.3 0c1.2 1.5 5.1 6.1 4.2 8.6zm-2.5 2.6c0.3 0.9 0.3 5.9-0.6 8.3zm-5.4 10.8c0.3-1.8 1.8-2.6 2.8-2.6zm8.2-2.8c1-0.3 3.1 1.5 3.1 6.6zm13.5-0.5c0 0 1-0.5 2-1.4q-0.1 0.1-0.1 0.2c0.1-0.2 0.9-0.8 2.4-1.2z"/>
				</g>
				<path id="Layer" class="s32" d="m421.1 252.3c0.5 0 1-0.4 1-0.9 0-0.3-0.5-0.7-1-0.7-0.5 0-1 0.4-1 0.8 0 0.4 0.5 0.8 1 0.8zm21.5 0.3c0.5 0 1-0.4 1-0.9 0-0.4-0.5-0.7-1-0.7-0.5 0-1 0.3-1 0.7 0 0.5 0.5 0.9 1 0.9z"/>
				<path id="Layer" class="s20" d="m412.4 291.3c1.2-7.4 4.7-13.5 4.8-14.1 0 0 3.6 0.7 9.9 1.3 6.1 0.7 7.8 0.4 10.7 0.2 2.7-0.3 6.3-0.8 6.3-0.8 0 0 1.2 2.3 1.3 4.6 0.3 4.8 2.1 25.8 2.3 31.4 0 0 0.7 3.4 0.7 11.5 0 9 2.5 27.1 2.5 36.8l-2.5 0.5c0 0-13.5 1-13.5-0.8 0-2-0.7-25.3 1.3-39.3 0 0-0.5-2.8-1.3-5.1-0.7-2.3-4-9.4-4-11 0 0-5.4 15-5.6 17.6-0.3 2.4-1.1 35.8-1.6 38.6 0 0-7.7 5.8-8.7 6.4-1 0.5-8.5-3.1-8.6-4.1-0.3-1 0.7-12.3 4.2-30.9 1.4-6.7 0.6-7.9 0.6-9.7 0-1.8 0.1-25.7 1.2-33.1z"/>
				<path id="Layer" fill-rule="evenodd" class="s18" d="m425.3 324.1c-0.6 2.1-1.6 4.1-3.4 5.4m-2.5-50c-0.3 1.2-2.1 6.8-6.7 10.1zm0.8 43.4c0.7-21.1 4.8-39 5.9-42.3zm-0.7 10.9c0.2-2.1 0.3-3.7 0.4-4.3zm-1.2 15.1l1.2-15.1c-0.4 5.2-1 13.3-1.2 15.1zm-3.3 20.2c0-7.7 2.1-16.3 2.5-17.3zm33.5-7.5c-4.3-11.4-3.6-24.3-3.4-26.1zm-17.4-62.3c-0.4-0.4-0.6-0.9-0.6-1.3 0-1 0.5-14.5 0.8-16.6zm1.7 1.5c0 0-1.5 0.5-1.8 5.6l0.1-7.1c0.5 0.7 1.2 1.3 1.7 1.5zm-5.6-6.5c-0.3 1.7-1.8 8-2.9 10.6zm9.4-13.2c0 0 4.6 0.9 4.9 0 0 0 1.5 27.5 3.6 42.8zm-2 3.5c0 1.8-0.6 15.4-0.6 15.4zm1.7 17.4c0 0 1.8 2.6 1.4 3.8zm-12.5-21.7c0 0-1.3-0.3-2.8-0.7zm4.2 5.8c0 0 0.3-3.5 0.6-4.3zm8.2 36.3c0.5 0.7 1.3 1.8 0.7 4.1z"/>
				<path id="Layer" class="s6" d="m416.5 277c0 0 0-3 1.2-4.6 0 0 3.2 0.7 7.7 1.2 4.7 0.5 8.4 0.8 11.8 0.5 3.4-0.4 6.9-1.3 6.9-1.3 0 0 1 4.5 0.5 5.2 0 0-3.7 0.7-7.8 0.9-4.1 0.3-11.1-0.4-13.4-0.8-3.2-0.3-5.9-0.9-6.9-1.1z"/>
				<path id="Layer" fill-rule="evenodd" class="s16" d="m419.5 277.4l0.5-4.6 1 0.1-0.2 4.8zm21.7-4.1l0.1 5.2-1.1 0.2-0.1-5.1zm-14.8 0.2l-0.7 5h-0.7l0.4-5z"/>
				<path id="Layer" class="s33" d="m408.9 366.9c-0.3 1.3-0.7 3-0.9 5.2 0 0.4-0.5 3 0.9 3.1 1.1 0.1 1.3-2.7 1.3-2.7 0 0-0.9 3.1 0.3 3.5 1.7 0.3 1.9-3.4 1.9-3.4-0.2 1.1-1.3 3.7 0.3 4 1.7 0.3 2.2-3.6 2.2-3.6 0 0-1.4 3.9 0.3 4 1.6 0.1 1.6-3.8 1.6-3.8 0 0-0.9 4.7 1.4 4.3 1.3-0.2 1.5-1.8 1.8-2.8 0.4-1.4 1.3-3.2 0.2-6.1-0.7-2.2-0.5-2.8-0.5-2.8 0 0-2.6 2-4.7 3.3-1 0.6-6.1-2.2-6.1-2.2zm27.7-4.1c-0.4-0.2-0.3 1.8-0.5 2.7-0.1 1 0.2 3 3.4 2.9 3.1-0.3 6.3-1 8.3-0.5 2 0.5 4.9 0.6 6.5 0.6 1.6 0 2.7-0.1 3.4-0.4 0.7-0.3 2.1 0.4 2.8 0.4 0.6 0 1.7-1.1 1.6-1.8-0.1-1.2-1.2-1.2-2.9-1.3-1.5-0.2-3.6-0.5-4.6-0.8-1.1-0.4-2.9-1.5-5.3-1.9 0 0-4.6 0.1-5.5 0.1-1 0-6.6 0.3-7.2 0z"/>
			</g>
			<g id="Layer">
				<path id="Layer" class="s34" d="m389.3 244.7c-0.5 0.3-1.1-1.9 0.3-2.7 0 0 0.4-1.8 1.9-2 0 0 1.3-1.8 3.1-1.6 0 0 2.1-1.4 2.8-1.2 0.8 0.1 2.7 2 2.8 2.7 0.2 0.6 0 1.8-0.5 2.2-0.6 0.6-0.9-0.1-1-0.8 0 0 0.3 1.4-0.8 2-1.1 0.6-1 0.2-1.1-0.6 0 0-0.3 1.5-1.1 1.7-0.7 0.3-1.2-0.4-1.8-0.4 0 0 1 0.8 0.3 1.4-0.7 0.5-1.4 0.3-1.9-0.1-0.5-0.5-1-1.7-3-0.6z"/>
				<path id="Layer" fill-rule="evenodd" class="s35" d="m394.8 238.5c1.8-0.2 3.3 1.2 3.8 2.7m-6.6-1.4c1.5 0.3 3.3 0.3 4.2 1.7 0.3 0.4 0.4 0.7 0.7 1.1zm-2.1 2.2c1.1-0.2 2.1 0.3 3 0.7 0.6 0.3 0.8 1 1.3 1.4z"/>
			</g>
		</g>
		<g id="Layer">
			<path id="Layer" class="s33" d="m560.5 221.6c0.6-0.3 0.4 0.6 0.5 0.9 0.3 1.2 0.3 2.5 0.8 3.7 0.6 1 0.7 1.4 1.7 1.9 1.5 0.8 6 3.3 9.1 1.3 0.2-0.1 0.5-0.3 0.7-0.5 0 0-1.2 3.9 2.7 5.8 1.3 0.7 14.7 7.7 14.7 7.7 0 0 1.4 2.6 0.5 6.1-0.2 0.6-0.4 1 0.2 1.4 1 0.7 2.5 2.6 3.5 5.6 0 0 2.8-1.2 2.8-3 0-1.8-1.2-2.8-1.4-4.1-0.2-1.2-1-4.4-0.6-5.3 0.4-1.1 2-1.4 2.6-1.8 0.7-0.4 1.5 0.4 1.3 1.2-0.1 1-0.8 0.8-1.5 1 0 0 0.9 1.8 0.7 3.1l8.8 4.5c0 0-1.2 1.5-1.6 2.1-0.4 0.7-1.3 9.5-3.9 13.7-2.5 4.2-3.4 3.1-3.8 3.6-0.6 0.5-1.4 1.3-2 1.8-0.6 0.5-3.6 0.8-4.2-0.8-0.7-1.5-1.2-2.5-3-3.9-1.8-1.4-5.5-5-5.5-6.7 0 0-2.2 6.3-1.9 11.5 0 0-7.9 1.6-15.1 1.8-7.1 0.1-10.7-1.4-10.7-1.4 0 0-1-6-0.6-7.1 0 0-1.1 3.9-1.9 5.2-1 1.6-2.1 4.9-4.1 5.1-2 0.1-3.7-2-3.9-2.8v-6.3h-8.1c0-0.1-3.5 1.4-4.8 1.2-1.1-0.1-1.7-1.2-0.7-1.6l0.4-0.2c-1.1 0-2.4 0.6-2.4 0.6h-4c0-0.1 0.1-0.4 0.1-0.5 0.3-1.1 2.4-2 4-2.7 1.5-0.6 3.1-1.2 4.3-1.3 1.8-0.2 3-0.1 5.8 0.3 0.7 0.1 3.7 0.4 5.4 1.3 0.4 0.3 1 0.4 0.7-0.9-0.3-1.3-1.1-5.2 0.3-7.8 1-1.8 0.9-3.3 0.8-4.8-0.2-1.6-1.1-5.2-1.1-6.8 0-5.4 4.1-7.5 7.7-8.7 4-1.2 6.7-2.6 6.5-4.9-0.1-2.5 0.5-6.6 0.2-8.5z"/>
			<g id="Layer">
				<path id="Layer" class="s33" d="m576.5 210.9c0.9 3.1 1.1 3.9 1.1 4.9 0 1.2-0.5 1.4-0.1 2.6 0.6 2.3-0.7 4.8-2.3 7.4-0.8 1.2-1.3 2.9-2.6 3.6-3.1 2-6.9-0.4-8.9-1.2-1-0.5-1.6-1.3-1.9-2-0.4-1.1-0.5-2.2-0.8-3.7 0-0.3 0.1-1.2-0.5-0.9-1.2-1.3-1-1.9-1.4-2.8-0.5-1 0.8-2 1.8-1.8-0.5-1.8-0.8-3.8-0.2-5.5 0.2-0.6-0.5-2.1 0.4-1.7 4.3 1.7 9.3 1.3 13.9 1.3 0.4 0 0.7-0.8 1.2-0.7 0.1 0 0.2 0.3 0.3 0.5z"/>
				<path id="Layer" class="s29" d="m576.9 212.5c0.5-0.4 0.2-2.2-0.3-4.1-0.2-0.9-0.9-1.3-2-2.3-1-1.1-1.4-1.1-2.1-1.4-0.5-0.2-1.9-0.2-2.5-0.5-0.6-0.2-2.1-0.1-3.5 0.1-1.9 0.3-3 0.2-4.4 1-1.4 0.8-2.6 1.6-3.1 3-0.3 1.1-1 2.4-0.7 6.4 0.2 4 0.9 3.2 0.9 3.2 0 0 1.1-1.5 1.8-0.5 0 0-0.1-2.1-0.3-3.4-0.1-1.1 0-2.5 0.4-4.2 0 0 4.4 1.6 8.5 1.6 2.8 0 6.5-0.3 6.6-1 0 0 0.7 2.1 0.7 2.1z"/>
				<path id="Layer" fill-rule="evenodd" class="s18" d="m571.4 219.2c-0.3-1.1 0.2-0.6-0.4-2.2m-10.2 4.6c0.4 0 1 0.2 1-0.5z"/>
				<path id="Layer" fill-rule="evenodd" class="s18" d="m577 215.7c-0.9-0.6-2.5-0.1-3.2 0.1-1.5 0.7-0.7 2.1-0.2 3.5 0.2 0.6 0.9 1.6 0.4 2.2-0.3 0.8-0.6 0.4-1.5 0.5 0.1-0.3-0.7 0-1 0-0.6-0.1-0.9 0.4-1.3 0.2-0.6-0.3-0.5-1.1-0.3-1.6m-6.4-3.8c1.6-1.1 1.8-1.3 3.9-1.2 1.3 0.1 2.6 0.4 2.6 0.8zm5.3 8.3c0.7-0.4 1.2-0.7 2-0.7 0 0 1.4 0.2 1.4 0.4 1-0.5 1.6-0.2 2 0.4zm0 0.3c2.2 0 4.4-0.3 5.2 0.2zm5 0.8c-1.6 0.8-3.2 0.5-4.8 0z"/>
				<g id="Layer">
					<path id="Layer" class="s31" d="m576.6 217c-0.7-0.1-0.9-0.9-2.9 0.3-1.1 0.5 1.7 1.3 1.3 1.2 1.1 0.2 1.5-0.5 1.6-1 0-0.2 0.2-0.5 0-0.5zm-7.8 0.7c0-0.7-1.7-1-2.6-0.7-1 0.3-0.6 0.1-1.5 0.5 1 0.2 0.7 0.3 1.5 0.7 0.8 0.4 1 0.8 2.2 0.2 0.2-0.1 0.6-0.5 0.7-0.9-0.1 0.1-0.2 0.2-0.3 0.2z"/>
					<path id="Layer" class="s32" d="m575.4 218.1q-0.2 0-0.3 0-0.2-0.1-0.3-0.2-0.1-0.1-0.1-0.3-0.1-0.1-0.1-0.2c0-0.5 0.3-0.9 0.8-0.9 0.4 0 0.6 0.4 0.6 0.9 0 0.3-0.2 0.7-0.6 0.7zm-8.2 0.2c-0.4 0-0.7-0.4-0.7-0.9 0-0.4 0.4-0.7 0.8-0.7 0.4 0 0.7 0.3 0.7 0.7 0 0.5-0.3 0.9-0.8 0.9z"/>
				</g>
			</g>
			<g id="a">
				<g id="Layer">
					<path id="Layer" fill-rule="evenodd" class="s18" d="m526.7 266.9c0.6-0.6 0.9-0.9 1.7-1.2 0.6-0.3 1.3-0.7 1.9-1 0.7-0.3 1.6-0.4 2.2-0.8m-0.4 2.5c0.3-0.2 0.5-0.3 0.8-0.5q0.1-0.1 0.3-0.1zm1.1-0.5l3.1-1.6c-0.6 0.8-1.4 1.2-2.3 1.3-0.1 0-0.1 0.1-0.2 0.1-0.2 0.1-0.4 0.1-0.6 0.2zm57.6-2.6c0-0.1 0.8-1.5 0.9-2.9 0.2-2.7 2.3-4.2 3.2-4.8zm0 0q0 0 0 0zm12.2-7.3c-0.4 1.6-0.5 6.9-5.6 12.5zm-0.9-7.4c0.4 1 0.8 2-0.2 2.8zm-15.4 10.9c0.7 0.4 1.3 0.9 1.7 1.8zm-2.5-2.7l2.5 2.7c-1.2-0.8-2.5-1.2-2.5-2.7z"/>
					<path id="Layer" fill-rule="evenodd" class="s18" d="m587.5 254c-2.9-0.8-3.6-3.6-3.7-5.8 0 1.9 0.1 3.9 0.2 4.7 0.5 3.9 0 5.4-0.3 8m0.3-15.6c0 0-0.2 1.3-0.2 2.9 0-1.1 0.1-2.2 0.2-2.9zm-19.7 6.4c-0.9 0.6-2.6 1.2-5.8 1.2-6.8 0-4.2-9.8-4.2-9.8-1.5 4.7-0.4 7.1 0.4 8.3 0.9 1.3-1.3 3.3-0.2 8.5 0 0 0.9 2.1 0.9 5.8zm0.9-1.4l-0.9 1.4c0.9-0.7 0.9-1.4 0.9-1.4z"/>
					<path id="Layer" fill-rule="evenodd" class="s18" d="m584.1 245.3c0 2 0 7.9-8.5 7.9-2.6 0-5.3-1.8-6.8-3.1m-1.8-9c0 2.4 0 4.6-0.3 6.5zm4.3-3.8c4.3 0 6.1 0.2 8.4 0.5zm-0.3-5.9c-0.5 2.1 0.3 5.4-3.6 5.9zm-7.7-0.7c0.6 1.5 0.6 3 0.8 4zm0.5 6.7q-0.1 0-0.3 0zm-0.2 0l-8.2-0.3c3.6-0.7 6.5 0.2 8.2 0.3zm-9.5 21c-0.8 1.5-1 3.5-3.4 5.8zm26.4-3.9q-0.1-0.6-0.1-1zm0.5 6.9l0.8 11.2c-2.1-3.3-2.3-7.1-1-10.4q0.1-0.4 0.2-0.8zm-0.5-6.9c0.3 1.6 1.2 4.4 0.5 6.9zm-4.6 0.9q-0.1-0.3-0.3-0.6zm2.1 3.7l-2.1-3.7c0.8 1.3 1.8 2.6 2.1 3.7zm-6.2-1.3q0-0.1 0-0.2zm4.4 10c0 0-3.3 1.3-2.9 6.1l-1.5-16.1c0.2 1.5 2.6 8.1 4.4 10zm-2.9 6.1v0.1q0-0.1 0-0.1zm-6.8-19.6c0 1.3 0.2 1.6-0.9 2.3zm-7.4 10.9c-0.9-2.5 3-7.1 4.3-8.6zm7.4 2.3c-0.9-2.5-0.9-7.4-0.6-8.4zm2-0.2c1 0 2.6 0.8 2.8 2.6zm-8.4 6.3c0-5.1 2.1-6.9 3.1-6.6zm-14.6-9.6c1.5 0.4 2.3 1.1 2.4 1.2q0 0-0.1-0.1c1 0.8 2 1.4 2 1.4z"/>
				</g>
				<path id="Layer" class="s32" d="m579 252.3c-0.5 0-1-0.4-1-0.9 0-0.3 0.5-0.7 1-0.7 0.5 0 1 0.4 1 0.7 0 0.5-0.5 0.9-1 0.9zm-21.5 0.3c-0.5 0-1-0.4-1-0.9 0-0.4 0.5-0.7 1-0.7 0.5 0 1 0.3 1 0.7 0 0.5-0.5 0.9-1 0.9z"/>
				<path id="Layer" class="s20" d="m587.7 291.3c-1.2-7.4-4.7-13.5-4.8-14.1 0 0-3.6 0.7-9.9 1.3-6.1 0.7-7.8 0.4-10.7 0.2-2.8-0.3-6.4-0.8-6.4-0.8 0 0-1.1 2.3-1.2 4.6-0.3 4.8-2.1 25.8-2.3 31.4 0 0-0.7 3.4-0.7 11.5 0 9-2.5 27.1-2.5 36.8l2.5 0.5c0 0 13.5 1 13.5-0.8 0-2 0.7-25.3-1.3-39.3 0 0 0.5-2.8 1.3-5.1 0.7-2.3 4-9.5 4-11 0 0 5.4 15 5.6 17.6 0.3 2.4 1.1 35.8 1.6 38.6 0 0 7.6 5.8 8.7 6.4 1 0.5 8.4-3.1 8.6-4.1 0.3-1-0.7-12.3-4.2-30.9-1.4-6.7-0.6-7.9-0.6-9.7 0-1.8-0.1-25.7-1.2-33.1z"/>
				<path id="Layer" fill-rule="evenodd" class="s18" d="m578.2 329.5c-1.8-1.3-2.8-3.3-3.4-5.4m12.6-34.5c-4.6-3.3-6.4-8.9-6.7-10.1zm-13.3-9.2c1.1 3.4 5.2 21.2 5.9 42.4zm6.2 49c0 0.6 0.2 2.2 0.3 4.3zm0.4 4.3l1.2 15.1c-0.3-1.8-0.8-9.9-1.2-15.1zm1.9 17.9c0.5 1.1 2.6 9.7 2.6 17.4zm-27.6-16.1c0.2 1.8 1 14.6-3.3 26.1zm14-54.2c0.3 2.1 0.7 15.6 0.7 16.7 0 0.4-0.2 0.8-0.5 1.3zm0.2 17.9l0.1 7.2c-0.3-5.2-1.8-5.6-1.8-5.6 0.4-0.2 1.2-0.8 1.7-1.6zm6.7 5.6c-1-2.5-2.6-8.9-2.8-10.5zm-20.7 19.1c2-15.3 3.6-42.8 3.6-42.8 0.3 0.9 4.8 0 4.8 0zm11-24c0 0-0.6-13.6-0.6-15.4zm-3.6 5.8c-0.4-1.2 1.4-3.8 1.4-3.8zm16.6-26.2c-1.5 0.5-2.9 0.8-2.9 0.8zm-7.7 2.3c0.3 0.7 0.6 4.2 0.6 4.2zm-8.3 44.7c-0.6-2.3 0.2-3.3 0.7-4.1z"/>
				<path id="Layer" class="s6" d="m583.6 277c0 0 0-3-1.2-4.6 0 0-3.2 0.7-7.7 1.2-4.7 0.5-8.4 0.8-11.8 0.5-3.4-0.4-7-1.3-7-1.3 0 0-0.9 4.5-0.4 5.1 0 0 3.7 0.8 7.8 1 4.1 0.3 11.1-0.4 13.4-0.8 3.2-0.3 5.9-0.9 6.9-1.1z"/>
				<path id="Layer" fill-rule="evenodd" class="s16" d="m579.3 277.7l-0.2-4.8 1-0.1 0.5 4.6zm-19.2-4.1l-0.1 5.1-1.2-0.2 0.1-5.2zm14.6 0l0.4 4.9h-0.6l-0.7-4.9z"/>
				<path id="Layer" class="s33" d="m591.2 366.9c0.3 1.3 0.7 3 0.9 5.2 0 0.4 0.5 3-0.9 3.1-1.1 0.1-1.4-2.7-1.4-2.7 0 0 1 3.1-0.2 3.5-1.8 0.3-1.9-3.4-1.9-3.4 0.2 1.1 1.3 3.7-0.3 4-1.7 0.3-2.2-3.6-2.2-3.6 0 0 1.4 3.9-0.3 4-1.6 0.1-1.6-3.8-1.6-3.8 0 0 0.8 4.7-1.4 4.3-1.3-0.2-1.6-1.8-1.8-2.8-0.4-1.4-1.3-3.2-0.2-6.2 0.7-2.1 0.4-2.7 0.4-2.7 0 0 2.7 2 4.8 3.3 0.9 0.6 6.1-2.2 6.1-2.2zm-27.8-4.1c0.5-0.2 0.4 1.8 0.6 2.7 0.1 1-0.2 3-3.4 2.9-3.1-0.3-6.3-1-8.3-0.5-2 0.5-4.9 0.6-6.5 0.6-1.6 0-2.7-0.1-3.4-0.4-0.7-0.3-2.1 0.3-2.8 0.3-0.7 0-1.7-1-1.6-1.7 0.1-1.2 1.2-1.2 2.8-1.3 1.6-0.2 3.7-0.5 4.7-0.8 1-0.4 2.9-1.5 5.3-1.9 0 0 4.6 0.1 5.5 0.1 1 0 6.6 0.3 7.1 0z"/>
			</g>
			<g id="Layer">
				<path id="Layer" class="s36" d="m609.5 248.1c0.4 0.2 1.8-1.9 0.4-2.8 0 0-0.4-1.8-2-1.9 0 0-1.2-1.8-3-1.5 0 0-2-1.5-2.7-1.4-0.9 0.2-2.8 2.1-2.9 2.8-0.1 0.6 0 1.7 0.5 2.3 0.5 0.4 0.9-0.1 1-1 0 0-0.4 1.4 0.8 2.1 1.1 0.7 1 0.1 1.1-0.7 0 0 0.3 1.6 1.1 1.8 0.7 0.3 1.2-0.3 1.8-0.3 0 0-1 0.7-0.3 1.2 0.7 0.6 1.4 0.3 1.9-0.1 0.6-0.4 0.3-1.6 2.3-0.5z"/>
				<path id="Layer" class="s37" d="m600.9 244.6c0.5-1.6 2.1-2.9 3.8-2.6m-2 4c0.2-0.3 0.3-0.7 0.6-1.1 0.8-1.4 2.7-1.4 4.3-1.7m-2.4 4.2c0.6-0.4 0.7-1.1 1.3-1.4 1-0.4 2-0.8 3.1-0.6"/>
				<path id="Layer" class="s38" d="m600.8 241.8c-0.9 0.7-1.8 1.7-1.8 2.2-0.1 0.5 0 1.7 0.4 2.2 0.6 0.5 0.9 0 1.1-0.7-0.1 0.4-0.1 1.4 0.8 1.9 1.1 0.6 1 0.1 1.1-0.7 0 0 0.3 1.5 1 1.8 0.8 0.3 1.3-0.4 1.8-0.4 0 0-0.9 0.8-0.2 1.3 0.6 0.5 1.4 0.2 1.9-0.1 0.5-0.4 0.2-1.6 2.2-0.5 0.3 0.1 0.8-0.4 1-1.1l-7.2-5.1z"/>
				<path id="Layer" fill-rule="evenodd" class="s33" d="m610.1 247.6l-1.1 1.1c-0.6 0.2-1-0.8-1.9 0.4-0.6 0.5-3.1 1.2-1.9-1-1 0.2-2.1 1.3-2.7-1.1-0.7 0.7-2.4 0.8-2.2-1.4-0.6 1.4-2.5 0-1.1-2.4m1.1 2.5q0-2.2 2.4-3.4zm4.5-2.1q-2.3 1.3-2.3 3.5zm2.6 1.8c-1.5 0.8-1.6 1.6-2.3 2.6z"/>
			</g>
		</g>
	</g>
	<g id="Layer">
		<path id="Layer" class="s39" d="m500.1 419.4c21.3 0.2 34-7.6 40.9-12.3 16.2-10.9 19.7-11.3 22.3-11.1 3.1 0.3 7.5 1.3 7.7 4 0.3 4.1-6.4 5.9-10.1 5.9-3.9 0-14.1-2.6-14.1-2.6l-2.7 1.8c1.8 0.9 22.6 7.8 26.6 1.3 4.1-6.7 8.2-17.4 8.2-17.4 0 0-4.6-8.2-14.7-8.2-10.3 0-20.3 6.5-26.9 11.3-6.6 4.8-15 11.5-37.2 11.5-22.2 0-30.7-6.7-37.3-11.5-6.7-4.8-16.7-11.3-26.8-11.3-10.3 0-14.8 8.2-14.8 8.2 0 0 4.1 10.7 8.1 17.4 4 6.5 24.8-0.4 26.6-1.3l-2.5-1.8c0 0-10.3 2.6-14.1 2.6-3.9 0-10.5-1.8-10.3-5.9 0.2-2.7 4.7-3.7 7.7-4 2.7-0.2 6.1 0.2 22.4 11.1 6.9 4.7 19.5 12.2 41 12.3z"/>
		<path id="Layer" fill-rule="evenodd" class="s39" d="m465.7 394.2c0 0 0-1.8-0.3-4.5-0.4-3.4-2.4-4.2-4-3.8-1 0.4-3.1 3-3.1 3v0.1q-0.4-0.3-0.7-0.5-0.4-0.3-0.8-0.5-0.3-0.2-0.7-0.4-0.4-0.2-0.7-0.4c0.7-0.9 5.1-3.5 6.1-3.5 1 0 14.1 5.3 18.3 8.9 1 0.9 1.8 6.8 1.2 8.7-7-1.8-11.6-4.4-15.3-7 0 0 0-0.1 0-0.1zm4.4 19.1c0.1 6.5-2.8 8.5-6.3 8.6-2.9 0.1-7.4-0.2-7.3-6.3 0.1-5.3 2.9-8.1 2.9-8.1 4.9 3.3 10.7 5.8 10.7 5.8zm64.3-19c-3.7 2.6-8.2 5.2-15.3 7-0.5-1.9 0.3-7.8 1.2-8.7 4.2-3.6 17.3-8.9 18.3-8.9 1 0 5.3 2.6 6.1 3.5q-0.4 0.2-0.7 0.4-0.4 0.2-0.8 0.4-0.4 0.2-0.7 0.5-0.4 0.2-0.7 0.5v-0.1c0 0-2.1-2.6-3.2-3-1.6-0.4-3.5 0.4-3.9 3.8-0.2 2.7-0.3 4.5-0.3 4.5 0 0 0 0.1 0 0.1zm6.2 13.2c0 0 2.9 2.8 3 8.1 0.2 6.1-4.4 6.4-7.3 6.3-3.6-0.1-6.3-2.1-6.3-8.6 0 0 5.8-2.5 10.6-5.8z"/>
	</g>
	<path id="Layer" fill-rule="evenodd" class="s40" d="m453.3 403.3c0 0-10.2 2.6-14 2.6-3.9 0-10.5-1.8-10.3-5.9 0.2-2.7 4.7-3.7 7.7-4 2.3-0.2 5.3 0.1 16.6 7.3zm110-7.3c3.1 0.3 7.5 1.3 7.7 4 0.3 4.1-6.3 5.9-10.1 5.9-3.9 0-14.1-2.6-14.1-2.6 11.3-7.2 14.2-7.5 16.5-7.3zm-97.6-1.7q0 0 0 0 0 0 0 0zm-0.8-0.6q-0.3-0.3-0.7-0.5-0.4-0.3-0.8-0.6-0.4-0.3-0.7-0.6c-1.5-1-2.9-2-4.4-3 0 0 2.1-2.7 3.1-3 1.6-0.5 3.6 0.3 4 3.7 0.3 2.7 0.3 4.6 0.3 4.6q-0.4-0.3-0.8-0.6zm-6.1 27.4c1.8 1 3.8 0.9 5 0.8 3.5-0.1 6.4-2.1 6.3-8.6 0 0 4.3 2.2 11.5 3.9 0 0 1.1 1.4 1.3 4.3 0.3 2.3-1.3 4.9-3.2 4.7 0 0-10-1.8-16.1-2.8-3.5-0.7-4.8-2.3-4.8-2.3zm75.9-31.4c0.4-3.4 2.3-4.2 3.9-3.7 1.1 0.3 3.2 3 3.2 3-1.6 1-3 2-4.3 3q-1.6 1.1-3.1 2.3c0 0 0.1-1.9 0.3-4.6zm1.7 33.7c-5.9 1-16 2.8-16 2.8-1.8 0.2-3.4-2.4-3.2-4.7 0.2-2.9 1.4-4.3 1.4-4.3 7-1.7 11.4-3.9 11.4-3.9 0 6.5 2.7 8.5 6.3 8.6 1.2 0.1 3.2 0.2 5-0.8 0 0-1.3 1.6-4.9 2.3z"/>
	<g id="Layer">
		<path id="Layer" fill-rule="evenodd" class="s41" d="m500.1 419.4c21.3 0.2 34-7.6 40.9-12.3 16.2-10.9 19.7-11.3 22.3-11.1 3.1 0.3 7.5 1.3 7.7 4 0.3 4.1-6.4 5.9-10.2 5.9-3.8 0-14-2.6-14-2.6l-2.7 1.8c1.8 0.9 22.6 7.8 26.6 1.3 4.1-6.7 8.2-17.4 8.2-17.4 0 0-4.6-8.2-14.7-8.2-10.3 0-20.3 6.5-26.9 11.3-6.6 4.9-15 11.5-37.2 11.5-22.2 0-30.7-6.7-37.3-11.5-6.7-4.8-16.7-11.3-26.8-11.3-10.3 0-14.8 8.2-14.8 8.2 0 0 4 10.7 8.1 17.4 4 6.5 24.8-0.4 26.6-1.3l-2.5-1.8c0 0-10.3 2.6-14.1 2.6-3.9 0-10.5-1.8-10.3-5.9 0.2-2.7 4.7-3.7 7.7-4 2.7-0.2 6.1 0.2 22.4 11.1 6.9 4.7 19.5 12.2 41 12.3z"/>
		<path id="Layer" fill-rule="evenodd" class="s41" d="m453.3 403.3c0 0-10.2 2.6-14 2.6-3.9 0-10.5-1.8-10.3-5.9 0.2-2.7 4.7-3.7 7.7-4 2.3-0.2 5.3 0.1 16.6 7.3zm110-7.3c3.1 0.3 7.5 1.3 7.7 4 0.3 4.1-6.4 5.9-10.2 5.9-3.8 0-14-2.6-14-2.6 11.3-7.2 14.2-7.5 16.5-7.3zm-97.6-1.7q0 0 0 0zm-0.8-0.6q-0.3-0.3-0.7-0.5-0.4-0.3-0.8-0.6-0.4-0.3-0.7-0.6c-1.5-1-2.9-2-4.4-3 0 0 2.1-2.7 3.1-3 1.6-0.5 3.6 0.3 4 3.7 0.3 2.7 0.3 4.6 0.3 4.6q-0.4-0.3-0.8-0.6z"/>
		<path id="Layer" fill-rule="evenodd" class="s41" d="m465.7 394.2c0 0 0-1.8-0.3-4.5-0.4-3.4-2.4-4.2-4-3.8-1 0.4-3.1 3-3.1 3v0.1q-0.4-0.3-0.7-0.5-0.4-0.2-0.8-0.5-0.3-0.2-0.7-0.4-0.4-0.2-0.7-0.4c0.7-0.9 5.1-3.5 6.1-3.5 1 0 14.1 5.3 18.3 8.9 1 0.9 1.8 6.8 1.2 8.7-7-1.8-11.6-4.5-15.3-7m4.4 19c0.1 6.5-2.8 8.5-6.3 8.6-2.9 0.1-7.4-0.2-7.3-6.3 0.1-5.3 2.9-8.1 2.9-8.1 4.9 3.3 10.7 5.8 10.7 5.8z"/>
		<path id="Layer" fill-rule="evenodd" class="s41" d="m461.8 408.9c0 0-2.3 2.4-2.6 6.3-0.2 3 1.8 4.7 4.3 4.5 3.6-0.2 5.1-5.1 3.3-7.8z"/>
		<path id="Layer" fill-rule="evenodd" class="s41" d="m458.8 421.1c1.8 1 3.8 0.9 5 0.8 3.5-0.1 6.4-2.1 6.3-8.6 0 0 4.3 2.2 11.5 3.9 0 0 1.1 1.4 1.3 4.3 0.3 2.3-1.3 4.9-3.2 4.7 0 0-10-1.8-16.1-2.8-3.5-0.7-4.8-2.3-4.8-2.3zm75.6-26.8q0 0 0 0 0 0 0 0 0 0 0 0zm0 0q0-0.6 0-1.2 0.1-0.5 0.1-1.1 0.1-0.6 0.1-1.1 0.1-0.6 0.1-1.2c0.4-3.4 2.3-4.2 3.9-3.7 1.1 0.3 3.2 3 3.2 3-1.6 1-3 2-4.3 3q-1.6 1.1-3.1 2.3z"/>
		<path id="Layer" fill-rule="evenodd" class="s41" d="m534.4 394.3c-3.7 2.5-8.2 5.2-15.3 7-0.5-1.9 0.3-7.8 1.2-8.7 4.2-3.6 17.3-8.9 18.3-8.9 1 0 5.3 2.6 6.1 3.5q-0.4 0.2-0.7 0.4-0.4 0.2-0.8 0.4-0.4 0.3-0.7 0.5-0.4 0.2-0.7 0.5v-0.1c0 0-2.1-2.6-3.2-3-1.6-0.4-3.5 0.4-3.9 3.8-0.2 2.7-0.3 4.5-0.3 4.5m6.2 13.3c0 0 2.9 2.8 3 8.1 0.2 6.1-4.4 6.4-7.3 6.3-3.6-0.1-6.3-2.1-6.3-8.6 0 0 5.8-2.5 10.6-5.8z"/>
		<path id="Layer" fill-rule="evenodd" class="s41" d="m538.3 408.9c0 0 2.2 2.4 2.6 6.3 0.3 3-1.8 4.7-4.4 4.5-3.6-0.2-4.9-5.1-3.3-7.8z"/>
		<path id="Layer" fill-rule="evenodd" class="s41" d="m541.3 421.1c-1.8 1-3.8 0.9-5 0.8-3.6-0.1-6.3-2.1-6.3-8.6 0 0-4.4 2.2-11.4 3.9 0 0-1.2 1.4-1.4 4.3-0.2 2.3 1.4 4.9 3.2 4.7 0 0 10.1-1.8 16-2.8 3.6-0.7 4.9-2.3 4.9-2.3z"/>
	</g>
	<path id="Layer" fill-rule="evenodd" class="s42" d="m480.1 424c3.8-2.8 0.7-5.1 0.7-5.1m38.6 0c0 0-3.3 2.3 0.5 5.1zm-47.9-1.5l9.6 4.2m-8-2l7 3m-4.5-4.8l5.3 2.4m47.8-2.8l-9.6 4.2m8.1-2l-7 3m4.4-4.8l-5.2 2.4"/>
	<g id="Layer">
		<path id="Layer" fill-rule="evenodd" class="s43" d="m443.3 389.7q0.2 0.3 0.2 0.7 0.1 0.3 0 0.8 0 0.2-0.1 0.5-0.1 0.2-0.3 0.4-0.1 0.2-0.3 0.4-0.2 0.1-0.4 0.3-1 0.5-2.1 0.3-0.2 0-0.3-0.1-0.1 0-0.3-0.1-0.1 0-0.2-0.1-0.2 0-0.3-0.1-0.1-0.1-0.2-0.1-0.1-0.1-0.2-0.2-0.2 0-0.3-0.1-0.1-0.1-0.2-0.2-0.1 0.2-0.3 0.4l-0.4-0.1q0.2-1.4 0.4-2.8 0.2 0.1 0.5 0.1 0 0.6 0.1 1 0.1 0.5 0.4 0.9 0.2 0.4 0.6 0.6 0.3 0.3 0.9 0.4 0.4 0.1 0.7 0 0.3 0 0.5-0.2 0.2-0.1 0.4-0.3 0.1-0.3 0.2-0.6 0-0.1 0-0.2 0-0.2 0-0.3 0-0.1-0.1-0.2 0-0.1 0-0.3-0.2-0.4-0.7-0.7-0.1-0.1-0.2-0.2-0.1 0-0.2-0.1-0.1 0-0.2-0.1-0.1-0.1-0.2-0.1-0.1-0.1-0.2-0.1-0.1-0.1-0.2-0.2-0.1 0-0.2-0.1-0.1-0.1-0.2-0.1-0.6-0.4-0.9-1-0.3-0.6-0.1-1.4 0-0.1 0-0.2 0-0.1 0.1-0.2 0-0.1 0.1-0.2 0-0.1 0.1-0.2 0.1-0.1 0.2-0.2 0 0 0.1-0.1 0.1-0.1 0.2-0.2 0.1 0 0.2-0.1 0.1-0.1 0.2-0.1 0.1-0.1 0.2-0.1 0.1 0 0.2-0.1 0.1 0 0.3 0 0.4-0.1 0.9 0 0.6 0.1 1 0.4 0.4 0.2 0.7 0.5l0.3-0.3q0.3 0 0.5 0.1l-0.5 2.6q-0.2 0-0.4-0.1 0-0.1 0-0.2-0.1-0.1-0.1-0.2 0-0.1 0-0.3 0-0.1 0-0.2-0.1-0.1-0.1-0.2 0-0.1 0-0.2-0.1-0.1-0.1-0.2-0.1-0.1-0.1-0.2-0.1-0.1-0.1-0.2-0.1-0.1-0.1-0.2-0.1 0-0.2-0.1 0-0.1-0.1-0.2-0.3-0.2-0.8-0.3-0.2 0-0.3 0-0.1-0.1-0.3 0-0.1 0-0.2 0-0.1 0.1-0.2 0.2-0.5 0.2-0.6 0.7-0.1 0.5 0.1 0.9 0.2 0.4 0.6 0.7 0.4 0.3 0.8 0.5 0.3 0.2 0.7 0.5 0.3 0.2 0.6 0.4 0.3 0.3 0.5 0.6zm11.6 1.6q-0.1 0-0.1 0-0.1-0.1-0.1-0.1-0.1 0-0.1 0-0.1 0-0.1-0.1-0.1 0-0.2 0 0 0-0.1 0-0.1 0-0.2 0 0 0-0.1 0-0.2 0-0.5 0.3-0.1 0.1-0.1 0.2-0.1 0.1-0.2 0.2-0.1 0.1-0.1 0.2-0.1 0.1-0.1 0.3-0.9 1.5-1.8 3.1-0.3 0.5-0.8 0.8-0.1 0.1-0.2 0.2-0.2 0-0.3 0.1-0.1 0-0.3 0.1-0.1 0-0.2 0-0.6 0.1-1.1-0.1-0.1 0-0.2 0-0.2-0.1-0.3-0.1-0.1-0.1-0.2-0.1-0.1-0.1-0.2-0.1-0.7-0.4-1.1-0.8-0.4-0.5-0.6-1 0-0.1-0.1-0.2 0-0.1 0-0.2 0-0.2 0-0.3 0-0.1 0-0.2 0-0.1 0-0.2 0-0.2 0-0.3 0.1-0.1 0.1-0.2 0.1-0.1 0.1-0.2l2.3-4.2q0.1 0 0.1-0.1 0 0 0-0.1 0 0 0 0 0-0.1 0-0.1 0-0.2-0.1-0.4 0 0 0-0.1-0.1 0-0.1 0 0-0.1-0.1-0.1 0 0 0-0.1-0.2-0.1-0.3-0.2l0.2-0.4q1.5 0.9 3 1.7l-0.2 0.4q-0.1-0.1-0.1-0.1-0.1 0-0.1 0-0.1 0-0.1-0.1-0.1 0-0.1 0 0 0-0.1 0 0 0-0.1 0 0-0.1-0.1-0.1 0 0-0.1 0-0.2 0-0.3 0.1 0 0-0.1 0 0 0.1 0 0.1-0.1 0-0.1 0.1 0 0 0 0.1-1.1 1.9-2.2 3.9-0.1 0.1-0.1 0.2 0 0-0.1 0.1 0 0.1 0 0.2 0 0.1-0.1 0.1 0 0.1 0 0.2 0 0.1 0 0.2-0.1 0.1-0.1 0.2 0 0.1 0.1 0.2 0 0.3 0.2 0.7 0.3 0.4 0.9 0.7 0.5 0.3 1 0.3 0.5 0.1 0.9-0.1 0.1 0 0.1-0.1 0.1 0 0.2-0.1 0.1 0 0.1-0.1 0.1 0 0.2-0.1 0-0.1 0.1-0.1 0.1-0.1 0.1-0.2 0.1 0 0.1-0.1 0.1-0.1 0.1-0.1l1.6-3q0.3-0.5 0.4-0.9 0.1-0.4 0.1-0.6-0.2-0.3-0.4-0.5-0.1 0-0.1-0.1-0.1 0-0.1-0.1-0.1 0-0.1 0-0.1-0.1-0.2-0.1l0.2-0.4q1.5 0.8 3 1.6c0 0-0.2 0.4-0.2 0.4zm4.2 7.3q0.2 0.4 0.2 0.8 0 0.5-0.3 0.9-0.2 0.5-0.7 0.8-0.1 0-0.2 0.1-0.1 0-0.2 0.1-0.1 0-0.3 0-0.1 0-0.2 0-0.1 0.1-0.2 0.1-0.2 0-0.3-0.1-0.1 0-0.2 0-0.1 0-0.2 0-0.2-0.1-0.3-0.1-0.1-0.1-0.2-0.1-0.2-0.1-0.3-0.1-0.1-0.1-0.2-0.1l-3.4-2 0.2-0.3q0.1 0 0.4 0.1 0.2 0.1 0.4 0.1 0 0 0.1 0 0 0 0 0 0.1 0 0.1 0 0.1 0 0.1 0 0 0 0.1-0.1 0 0 0 0 0.1-0.1 0.1-0.1 0 0 0-0.1 1.5-2.5 3-5.1 0 0 0 0 0-0.1 0-0.1 0-0.1 0.1-0.1 0 0 0-0.1 0 0 0-0.1 0 0 0-0.1-0.1 0-0.1-0.1 0 0 0 0-0.1-0.1-0.1-0.1 0-0.1-0.1-0.1 0 0 0-0.1-0.1 0-0.1 0-0.2-0.2-0.3-0.3 0.1-0.1 0.2-0.3 1.7 0.9 3.3 1.9 0.4 0.2 0.7 0.5 0.3 0.3 0.5 0.6 0.2 0.4 0.2 0.8 0.1 0.4-0.2 0.8 0 0.1-0.1 0.2 0 0.1-0.1 0.1-0.1 0.1-0.2 0.2 0 0-0.1 0.1-0.1 0.1-0.2 0.1 0 0-0.1 0.1-0.1 0-0.2 0-0.1 0.1-0.2 0.1-0.1 0-0.2 0 0 0-0.1 0-0.1 0-0.2 0-0.1 0-0.2 0-0.1 0-0.2 0-0.1 0-0.2 0-0.1-0.1-0.2-0.1-0.1 0-0.2-0.1v0.1q0.3 0.2 0.6 0.5 0.3 0.4 0.5 0.8zm-0.6-1.8q0.1 0 0.1-0.1 0.1 0 0.2 0 0-0.1 0.1-0.1 0.1-0.1 0.1-0.1 0.1-0.1 0.1-0.2 0.1 0 0.1-0.1 0.1-0.1 0.1-0.1 0.1-0.1 0.1-0.2 0.4-0.6 0.2-1.1-0.1-0.5-0.8-0.9-0.1-0.1-0.4-0.2-0.2-0.2-0.4-0.3l-1.6 2.8q0.3 0.1 0.7 0.3 0.4 0.3 0.7 0.3 0.4 0.1 0.7 0zm-0.6 2.6q0.1-0.1 0.1-0.2 0.1-0.2 0.1-0.4 0-0.1 0-0.3 0-0.2 0-0.3-0.2-0.7-1-1.1-0.1-0.1-0.2-0.1 0 0-0.1-0.1-0.1 0-0.1-0.1-0.1 0-0.2 0-0.2-0.2-0.3-0.2l-1.4 2.5q-0.1 0-0.1 0.1 0 0.1 0 0.2 0 0.1 0 0.1 0 0.1 0 0.2 0.2 0.3 0.7 0.6 0.7 0.4 1.4 0.2 0.6-0.2 1.1-1.1zm18.4 4.2q-0.1 0-0.1 0-0.1 0-0.2 0 0 0-0.1-0.1 0 0-0.1 0-0.1 0-0.1 0-0.1 0-0.2 0 0 0-0.1 0-0.1 0-0.1 0-0.3 0-0.5 0.4-0.1 0.1-0.1 0.2-0.1 0.1-0.2 0.2 0 0.1-0.1 0.3 0 0.1-0.1 0.2l-1.4 3.2q-0.2 0.7-0.7 1-0.1 0.1-0.2 0.2-0.1 0-0.3 0.1-0.1 0.1-0.2 0.1-0.2 0-0.3 0.1-0.1 0-0.3 0-0.1 0-0.2 0-0.2 0-0.3 0-0.1 0-0.3 0-0.1 0-0.2 0-0.1-0.1-0.3-0.1-0.1 0-0.2-0.1-0.1 0-0.2-0.1-0.2 0-0.3-0.1-0.2-0.1-0.3-0.2-0.2 0-0.3-0.1-0.1-0.1-0.3-0.3-0.4-0.4-0.7-0.8 0-0.1-0.1-0.2 0-0.2 0-0.3-0.1-0.1-0.1-0.2 0-0.1 0-0.2 0-0.2 0-0.3 0-0.1 0-0.2 0.1-0.1 0.1-0.2 0-0.1 0.1-0.2l1.9-4.5q0 0 0 0 0-0.1 0-0.1 0-0.1 0-0.1 0-0.1 0-0.1 0 0 0-0.1 0 0 0-0.1 0 0-0.1-0.1 0 0 0 0-0.1-0.1-0.1-0.1 0 0-0.1-0.1 0 0 0 0-0.1-0.1-0.1-0.1-0.2-0.1-0.3-0.2 0.1-0.2 0.1-0.4l3.2 1.4q-0.1 0.2-0.2 0.4 0-0.1-0.1-0.1 0 0-0.1 0 0 0-0.1 0 0 0-0.1-0.1 0 0-0.1 0 0 0 0 0-0.1 0-0.1 0-0.1 0-0.1 0-0.2 0-0.4 0.1 0 0 0 0.1-0.1 0-0.1 0 0 0.1 0 0.1 0 0-0.1 0.1-0.9 2-1.7 4.1-0.1 0.1-0.1 0.2 0 0.1-0.1 0.1 0 0.1 0 0.2 0 0.1 0 0.2-0.1 0.1-0.1 0.2 0 0 0 0.1 0 0.1 0 0.2 0 0.1 0.1 0.2 0 0.4 0.3 0.7 0.3 0.4 0.9 0.6 0.6 0.3 1.1 0.3 0.5 0 0.8-0.2 0.4-0.2 0.6-0.5 0.2-0.3 0.4-0.6l1.3-3.1q0.2-0.6 0.3-1 0.1-0.4 0-0.6-0.2-0.2-0.5-0.4 0 0-0.1-0.1 0 0-0.1 0 0-0.1-0.1-0.1-0.1-0.1-0.1-0.1l0.1-0.4 3.1 1.4q0 0 0 0.1 0 0 0 0.1-0.1 0-0.1 0.1 0 0 0 0zm8.9 10.5l-3.5-1 0.1-0.4q0.2 0.1 0.5 0.1 0.3 0.1 0.5 0.1 0-0.1 0-0.1 0.1 0 0.1 0 0.1 0 0.1-0.1 0 0 0.1 0 0 0 0-0.1 0.1 0 0.1-0.1 0 0 0 0 0-0.1 0.1-0.1l1.6-5.7q0 0 0 0 0 0 0 0 0 0-0.1 0 0 0 0 0c-1.5 1.9-3.1 3.9-4.6 5.8q-0.2 0-0.3 0c-0.2-2.6-0.4-5.1-0.6-7.6q0 0 0 0 0 0 0 0 0 0-0.1 0 0 0 0 0-0.7 2.3-1.3 4.7-0.2 0.6-0.2 1-0.1 0.4 0.1 0.6 0.1 0.2 0.4 0.4 0.4 0.2 0.5 0.2l-0.1 0.4-3.2-0.9 0.1-0.4q0.3 0.1 0.5 0.1 0.3 0 0.5-0.1 0.3-0.1 0.4-0.4 0.2-0.3 0.4-1l1.2-4q0.1-0.4 0.1-0.6-0.1-0.1-0.1-0.1 0-0.1 0-0.1 0-0.1 0-0.2-0.1 0-0.1-0.1 0 0-0.1-0.1 0 0 0 0-0.1-0.1-0.1-0.1-0.1-0.1-0.1-0.1-0.1 0-0.2-0.1 0 0-0.1 0 0-0.1-0.1-0.1-0.1 0-0.1 0l0.1-0.4 2.7 0.8c0.2 2.1 0.4 4.3 0.6 6.5 1.1-1.5 2.2-2.9 3.3-4.4q0.2-0.2 0.4-0.5 0 0 0-0.1 0.1 0 0.1-0.1 0 0 0 0 0.1-0.1 0.1-0.1 1.3 0.3 2.6 0.7l-0.2 0.4q0 0-0.1 0 0 0-0.1 0 0 0-0.1-0.1 0 0-0.1 0 0 0-0.1 0 0 0-0.1 0 0 0-0.1 0 0 0 0 0-0.1 0-0.1 0-0.1 0-0.1 0.1-0.1 0-0.1 0 0 0-0.1 0.1 0 0 0 0 0 0.1-0.1 0.1 0 0.1 0 0.1 0 0 0 0.1l-1.7 5.6q0 0.1 0 0.1 0 0.1 0 0.1 0 0 0 0.1 0 0 0 0.1 0 0 0 0.1 0.1 0 0.1 0 0 0.1 0 0.1 0.1 0 0.1 0.1 0.1 0.1 0.3 0.2 0.3 0.1 0.4 0.1 0 0.2-0.1 0.4zm8.5-2.5q0.3 0.2 0.5 0.7 0.2 0.4 0.1 0.9 0 0.2 0 0.3 0 0.1-0.1 0.2 0 0.2-0.1 0.3-0.1 0.1-0.1 0.2-0.1 0.1-0.2 0.2-0.1 0-0.2 0.1-0.1 0.1-0.2 0.2-0.1 0-0.2 0.1-0.1 0-0.2 0.1-0.1 0-0.2 0.1-0.1 0-0.3 0-0.1 0.1-0.2 0.1-0.5 0-1 0-2-0.3-3.9-0.5v-0.4q0.2 0 0.5 0 0.2 0 0.3 0 0.1-0.1 0.1-0.1 0.1 0 0.1 0 0 0 0.1-0.1 0 0 0 0 0.1-0.1 0.1-0.1 0 0 0-0.1 0 0 0-0.1 0 0 0-0.1 0.4-2.9 0.8-5.8 0 0 0-0.1 0 0 0 0 0-0.1 0-0.1 0-0.1 0-0.1-0.1-0.1-0.1-0.1 0 0 0-0.1-0.1 0-0.1 0 0-0.1-0.1-0.1 0 0-0.1-0.1 0 0-0.1 0 0 0-0.1 0 0-0.1 0-0.1-0.3-0.1-0.4-0.1l0.1-0.4 3.7 0.5q0.5 0 0.9 0.2 0.4 0.1 0.7 0.4 0.3 0.2 0.5 0.6 0.2 0.4 0.1 0.9 0 0.1-0.1 0.3 0 0.2-0.1 0.4-0.1 0.1-0.3 0.3-0.1 0.1-0.3 0.2-0.3 0.2-0.6 0.3-0.1 0-0.2 0.1-0.1 0-0.2 0-0.1 0-0.2 0-0.1 0.1-0.2 0.1 0.3 0.1 0.8 0.3 0.4 0.2 0.7 0.5zm-1.3-1.4q0.3-0.3 0.4-0.5 0.1-0.1 0.1-0.2 0-0.1 0-0.2 0-0.1 0.1-0.1 0-0.1 0-0.2 0.1-0.7-0.3-1.1-0.3-0.4-1.1-0.5 0 0-0.1 0 0-0.1-0.1-0.1-0.1 0-0.1 0-0.1 0-0.1 0h-0.5q-0.2 1.5-0.4 3.1l0.7 0.1q0.1 0 0.2 0 0.1 0 0.2 0 0.2 0 0.3 0 0.1 0 0.2 0 0.3-0.1 0.5-0.3zm0.5 2.6q0.1-0.7-0.3-1.2-0.4-0.5-1.3-0.6-0.1 0-0.2 0-0.1-0.1-0.2-0.1 0 0-0.1 0-0.1 0-0.2 0-0.2 0-0.4 0-0.1 1.4-0.3 2.8 0 0.1 0 0.2 0 0.1 0 0.1 0 0.1 0.1 0.2 0 0 0.1 0.1 0.3 0.2 0.8 0.3 0.9 0.1 1.4-0.3 0.5-0.5 0.6-1.5zm11.1 2.6h-2.2q-0.7-1.1-1.3-2-0.6-0.8-1.3-1.7h-0.9v2.6q0 0.2 0.1 0.4 0.1 0.1 0.3 0.2 0.1 0 0.3 0.1 0.3 0 0.5 0v0.4h-3.5v-0.4q0.1 0 0.4 0 0.1 0 0.1 0 0 0 0.1-0.1 0 0 0.1 0 0 0 0.1 0 0 0 0.1 0 0-0.1 0-0.1 0.1 0 0.1-0.1 0 0 0 0 0.1-0.1 0.1-0.1 0-0.1 0-0.1 0-0.1 0-0.1 0 0 0-0.1v-5.9q0-0.2-0.1-0.3 0-0.2-0.2-0.3-0.1 0-0.1 0-0.1 0-0.1 0-0.1 0-0.1-0.1-0.1 0-0.1 0-0.1 0-0.1 0-0.1 0-0.1 0-0.1 0-0.1 0-0.1 0-0.1 0v-0.4h3.8q0.5 0 1 0.1 0.5 0.1 0.8 0.3 0.4 0.2 0.6 0.6 0.2 0.4 0.2 0.9 0 0.5-0.1 0.8-0.1 0.1-0.1 0.2-0.1 0.1-0.1 0.2-0.1 0.1-0.1 0.1-0.1 0.1-0.2 0.2 0 0-0.1 0.1-0.1 0-0.2 0.1 0 0.1-0.1 0.1-0.1 0-0.2 0.1-0.1 0-0.2 0.1-0.1 0-0.2 0.1-0.1 0-0.2 0-0.1 0.1-0.2 0.1 0.6 0.8 1 1.3 0.4 0.6 1 1.4 0.1 0.1 0.2 0.2 0.1 0.1 0.2 0.2 0.1 0.1 0.2 0.2 0.2 0.1 0.3 0.1 0.1 0.1 0.4 0.2 0.2 0 0.3 0 0 0.2 0 0.4zm-3-6.1q0-0.7-0.4-1.1-0.5-0.5-1.3-0.5h-1v3.5h0.8q0.8 0 1.3-0.5 0.6-0.5 0.6-1.4zm12.6 5.5l-3.5 0.3q0-0.1 0-0.1 0-0.1 0-0.1 0-0.1 0-0.1 0-0.1 0-0.1 0.4-0.1 0.7-0.2 0.3-0.1 0.3-0.2 0-0.1 0-0.2 0 0 0 0 0 0 0 0 0-0.1 0-0.1 0 0 0 0-0.4-0.9-0.9-1.8l-2.9 0.2q-0.1 0.5-0.2 0.8 0 0.3-0.1 0.5 0 0.1 0 0.1 0 0.1 0 0.1-0.1 0.1-0.1 0.1 0 0.1 0 0.1 0 0.2 0 0.3 0 0.2 0.4 0.3 0.4 0.1 0.8 0.1l0.1 0.4-3.1 0.3q0-0.3-0.1-0.5 0.1 0 0.1 0 0.1 0 0.1 0 0.1 0 0.1 0 0.1 0 0.1-0.1 0.1 0 0.1 0 0.1 0 0.1 0 0 0 0.1-0.1 0 0 0.1 0 0.2-0.2 0.3-0.4 0 0 0.1-0.1 0-0.1 0-0.1 0.1-0.1 0.1-0.1 0-0.1 0-0.2 0.5-1.5 1.1-3.5 0.6-2 1.1-3.5h0.5c1 2.2 2.2 4.5 3.2 6.8q0.2 0.2 0.3 0.3 0.1 0.1 0.3 0.3 0.1 0 0.4 0.1 0.2 0 0.3 0 0 0.2 0.1 0.4zm-3.6-3.1q-0.8-1.5-1.5-3-0.5 1.6-1 3.2zm15.3-6.4l-0.4 0.1q-0.3-0.4-0.8-0.8-0.5-0.4-0.8-0.4-0.1 0.1-0.1 0.1-0.1 0-0.2 0 0 0-0.1 0 0 0-0.1 0-0.2 0.1-0.5 0.2l-1.3 0.3q0.4 1.6 0.8 3.2 0.5-0.1 0.9-0.3 0.4-0.1 0.7-0.2 0-0.1 0-0.1 0.1 0 0.1-0.1 0.1 0 0.1-0.1 0 0 0.1-0.1 0-0.2 0.1-0.4 0-0.1 0-0.2 0-0.1 0-0.1 0-0.1 0-0.2 0 0-0.1-0.1l0.5-0.1q0.4 1.5 0.8 3.1-0.2 0-0.4 0.1 0-0.1-0.1-0.2 0 0 0-0.1-0.1-0.1-0.1-0.1 0-0.1-0.1-0.1-0.2-0.3-0.3-0.4-0.1-0.1-0.1-0.1-0.1 0-0.2-0.1 0 0-0.1 0 0 0-0.1 0-0.1 0-0.2 0-0.1 0-0.1 0-0.1 0-0.2 0-0.1 0.1-0.2 0.1l-0.9 0.2 0.8 2.7q0 0.1 0 0.1 0 0.1 0 0.1 0.1 0 0.1 0.1 0 0 0 0.1 0.1 0.1 0.4 0.1 0 0 0.3 0 0.3 0 0.5-0.1l0.1 0.4-3.5 1-0.1-0.4q0.2-0.1 0.5-0.2 0.2-0.1 0.3-0.1 0.1-0.1 0.1-0.1 0 0 0-0.1 0.1 0 0.1 0 0-0.1 0-0.1 0-0.1 0-0.1 0-0.1 0-0.1 0 0 0-0.1 0 0 0-0.1l-1.6-5.7q0 0 0 0 0-0.1 0-0.1 0-0.1-0.1-0.1 0 0 0-0.1-0.1-0.1-0.3-0.1-0.1 0-0.1 0-0.1 0-0.1 0-0.1 0-0.2 0 0 0-0.1 0 0 0-0.1 0 0 0-0.1 0 0 0-0.1 0 0 0-0.1 0l-0.1-0.4 6.3-1.7c0 0 0.5 2 0.5 2zm9.2-0.7q0.4 1.1 0.9 2.3l-5.8 2.8-0.2-0.4q0.1-0.1 0.3-0.2 0.3-0.2 0.3-0.2 0.1-0.1 0.1-0.1 0 0 0-0.1 0.1 0 0.1-0.1 0 0 0-0.1 0 0 0-0.1 0 0 0 0-0.1-0.1-0.1-0.1 0-0.1 0-0.1-1.3-2.6-2.5-5.3-0.1 0-0.1 0 0-0.1 0-0.1-0.1-0.1-0.1-0.1 0 0-0.1-0.1 0 0 0 0-0.1 0-0.1 0-0.1 0-0.1-0.1-0.1 0-0.1 0-0.1 0-0.1 0-0.1 0-0.1 0.1-0.1 0-0.1 0-0.1 0-0.1 0-0.1 0-0.1 0-0.1 0-0.1 0 0 0-0.1 0.1 0 0-0.1 0-0.1-0.2-0.2-0.4l3.2-1.5 0.1 0.4q0 0 0 0-0.1 0.1-0.1 0.1-0.1 0-0.1 0-0.1 0.1-0.1 0.1 0 0-0.1 0.1 0 0-0.1 0 0 0.1 0 0.1-0.1 0-0.1 0.1 0 0-0.1 0 0 0.1 0 0.1 0 0 0 0.1 0 0 0 0.1 0 0.2 0 0.3l2.4 5q0.2 0.3 0.3 0.5 0 0 0.1 0 0 0.1 0 0.1 0.1 0 0.1 0.1 0.1 0 0.1 0 0.2 0 0.4-0.1 0.3 0 0.7-0.3 0.2 0 0.4-0.2 0.2-0.1 0.4-0.2 0.2-0.1 0.3-0.2 0-0.1 0-0.1 0.1 0 0.1-0.1 0 0 0 0 0-0.1 0-0.1 0.1-0.3 0.2-1 0-0.6 0-0.9c0 0 0.4-0.2 0.4-0.2zm4.3-8.1q0.2 0.1 0.4 0.2 0.2 0 0.4 0.1 0.2 0.1 0.3 0.2 0.2 0.1 0.4 0.3 0.1 0.1 0.3 0.3 0.2 0.1 0.3 0.3 0.2 0.2 0.3 0.3 0.1 0.2 0.2 0.4 0.5 0.9 0.7 1.7 0.1 0.8-0.1 1.6-0.1 0.2-0.1 0.4-0.1 0.1-0.2 0.3 0 0.2-0.1 0.4-0.1 0.1-0.3 0.3-0.1 0.1-0.2 0.3-0.1 0.1-0.3 0.2-0.1 0.2-0.3 0.3-0.2 0.1-0.3 0.2-0.8 0.4-1.6 0.5-0.7 0.1-1.5-0.1-0.2 0-0.4-0.1-0.1-0.1-0.3-0.2-0.2-0.1-0.4-0.2-0.1-0.1-0.3-0.2-0.1-0.2-0.3-0.3-0.2-0.2-0.3-0.3-0.1-0.2-0.3-0.4-0.1-0.2-0.2-0.3-0.1-0.2-0.2-0.4-0.1-0.2-0.2-0.5-0.1-0.2-0.1-0.4-0.1-0.2-0.1-0.4-0.1-0.2-0.1-0.4 0-0.2 0-0.4 0-0.2 0-0.4 0.1-0.2 0.1-0.4 0.1-0.2 0.1-0.4 0.1-0.2 0.2-0.4 0.1-0.1 0.2-0.3 0.1-0.2 0.2-0.3 0.4-0.7 1.1-1.1 0.7-0.4 1.5-0.5 0.2 0 0.4 0 0.2 0 0.4 0 0.2 0 0.4 0 0.2 0.1 0.3 0.1zm2.2 5.4q0-0.1 0-0.3 0-0.1 0-0.3 0-0.2-0.1-0.3 0-0.2-0.1-0.3 0-0.2-0.1-0.4-0.1-0.1-0.1-0.3-0.1-0.2-0.2-0.3-0.1-0.2-0.2-0.4-0.1-0.1-0.2-0.3-0.1-0.2-0.2-0.3-0.1-0.2-0.2-0.3-0.2-0.2-0.3-0.3-0.1-0.1-0.2-0.2-0.2-0.1-0.3-0.2-0.1-0.1-0.3-0.2-0.1-0.1-0.2-0.2-0.2 0-0.3-0.1-0.1 0-0.3-0.1-0.1 0-0.2 0-0.2 0-0.3 0-0.6 0-1.1 0.3-0.6 0.3-0.9 0.9 0 0.1-0.1 0.2 0 0.2-0.1 0.3 0 0.2 0 0.3 0 0.2 0 0.3 0 0.6 0.2 1.2 0.2 0.7 0.6 1.3 0.1 0.2 0.2 0.4 0.1 0.1 0.2 0.3 0.1 0.1 0.2 0.3 0.2 0.1 0.3 0.2 0.5 0.5 1 0.8 0.5 0.3 1.1 0.3 0.5 0 1.1-0.3 0.1-0.1 0.3-0.2 0.1-0.1 0.2-0.2 0.1-0.1 0.2-0.2 0.1-0.1 0.1-0.3 0.1-0.1 0.2-0.2 0-0.1 0.1-0.3 0-0.1 0-0.3 0-0.1 0-0.3zm10.3-5.5q-0.9 0.6-1.8 1.3-1.3-0.5-2.3-0.9-0.9-0.3-2-0.6-0.4 0.2-0.7 0.5l1.5 2.1q0.1 0.1 0.2 0.2 0.2 0.1 0.4 0.1 0-0.1 0.1-0.1 0 0 0.1 0 0 0 0.1-0.1 0 0 0 0 0.3-0.1 0.4-0.2l0.3 0.3q-1.5 1-2.9 2-0.1-0.1-0.2-0.3 0.1-0.1 0.3-0.3 0 0 0.1 0 0-0.1 0-0.1 0.1 0 0.1-0.1 0 0 0 0 0.1-0.1 0.1-0.1 0-0.1 0-0.1 0 0 0-0.1 0 0 0-0.1 0 0 0-0.1 0 0 0 0 0-0.1-0.1-0.1 0-0.1 0-0.1-1.7-2.4-3.4-4.8-0.1-0.1-0.1-0.1 0 0 0-0.1-0.1 0-0.1 0-0.1 0-0.1-0.1-0.1-0.1-0.3 0-0.1 0-0.2 0.1-0.1 0-0.2 0-0.1 0.1-0.2 0.1-0.1 0.1-0.2 0.1l-0.2-0.3q1.6-1.1 3.1-2.2 0.1-0.1 0.2-0.2 0.1 0 0.2-0.1 0.1 0 0.2-0.1 0.2 0 0.3-0.1 0.1 0 0.2-0.1 0.1 0 0.2 0 0.1-0.1 0.2-0.1 0.1 0 0.2 0 0.2 0 0.3 0 0.1 0 0.2 0 0.1 0 0.2 0.1 0.1 0 0.2 0.1 0.4 0.1 0.7 0.6 0 0 0.1 0.1 0 0.1 0.1 0.2 0 0.1 0.1 0.2 0 0.1 0 0.2 0.1 0.4 0 0.8 0 0.1 0 0.2 0 0.1-0.1 0.1 0 0.1 0 0.2-0.1 0.1-0.1 0.2-0.1 0.1-0.1 0.2-0.1 0.1-0.2 0.2 0 0.1-0.1 0.1 0 0.1-0.1 0.2 0.9 0.3 1.6 0.5 0.6 0.2 1.6 0.5 0.1 0.1 0.2 0.1 0.2 0 0.3 0.1 0.2 0 0.3 0 0.2 0 0.3 0 0.1-0.1 0.1-0.1 0.1 0 0.1 0 0.1 0 0.1 0 0.1-0.1 0.1-0.1 0.2-0.1 0.3-0.2 0.2 0.2 0.3 0.4zm-6-3.2q-0.5-0.6-1.1-0.7-0.6-0.1-1.2 0.3l-0.8 0.6q0.2 0.4 0.5 0.7 0.2 0.4 0.5 0.7 0.2 0.4 0.5 0.8 0.3 0.3 0.5 0.7l0.6-0.5q0.7-0.4 0.8-1.2 0.2-0.7-0.3-1.4zm12.8-2q0.3 1.2 0.7 2.4l-6.5 2.3q0-0.2-0.1-0.3 0.2-0.1 0.4-0.3 0.3-0.1 0.3-0.2 0.1 0 0.1 0 0-0.1 0-0.1 0.1 0 0.1-0.1 0 0 0-0.1 0 0 0 0 0-0.1 0-0.1 0-0.1 0-0.1 0-0.1 0-0.1-1.1-2.8-2.1-5.5 0 0 0-0.1 0 0-0.1-0.1 0 0 0 0 0-0.1-0.1-0.1-0.1-0.1-0.3-0.1-0.2 0-0.4 0-0.1 0-0.1 0-0.1 0-0.2 0 0 0-0.1 0.1 0 0-0.1 0 0-0.2-0.1-0.4l6-2.2 0.7 1.8q-0.2 0.1-0.4 0.2-0.3-0.4-0.8-0.7-0.6-0.4-0.9-0.3-0.2 0.1-0.4 0.1-0.3 0.1-0.6 0.2l-1.2 0.5 1.1 3q0.5-0.1 0.9-0.3 0.4-0.2 0.6-0.3 0.1-0.1 0.1-0.1 0 0 0.1-0.1 0 0 0-0.1 0 0 0.1-0.1 0-0.1 0-0.1 0-0.1 0-0.1 0-0.1 0-0.2 0 0 0-0.1 0-0.1 0-0.1 0-0.1 0-0.2 0 0 0-0.1-0.1-0.1-0.1-0.1 0.2-0.1 0.4-0.2 0.6 1.5 1.2 3-0.3 0.1-0.5 0.2 0-0.1 0-0.2-0.1 0-0.1-0.1 0-0.1-0.1-0.1 0-0.1-0.1-0.1-0.2-0.3-0.3-0.4-0.1 0-0.1 0-0.1-0.1-0.2-0.1 0 0-0.1 0-0.1 0-0.1 0-0.1 0-0.2 0 0 0-0.1 0-0.1 0.1-0.2 0.1 0 0-0.1 0l-0.9 0.4q0.4 1.1 0.9 2.3 0.1 0.3 0.2 0.5 0 0 0.1 0.1 0 0 0 0 0.1 0.1 0.1 0.1 0.1 0 0.1 0 0.2 0.1 0.4 0 0.3-0.1 0.8-0.2 0.1-0.1 0.4-0.2 0.1 0 0.2-0.1 0 0 0.1 0 0 0 0.1-0.1 0.1 0 0.1 0 0.2-0.1 0.4-0.3 0.2-0.1 0.3-0.2 0.1-0.4 0.2-1 0.1-0.6 0.1-0.9 0.2-0.1 0.4-0.2zm6.9-5.6q0.1 0.1 0.3 0.3 0.1 0.1 0.3 0.3 0.1 0.1 0.2 0.3 0.1 0.1 0.2 0.3 0.4 0.8 0.5 1.7 0.1 0.3 0.1 0.5 0 0.2 0 0.4 0 0.3-0.1 0.5 0 0.2 0 0.4-0.1 0.2-0.2 0.4 0 0.2-0.1 0.4-0.1 0.2-0.2 0.3-0.1 0.2-0.2 0.4-0.5 0.6-1.2 1-0.1 0.1-0.3 0.2-0.2 0-0.4 0.1-0.2 0.1-0.3 0.1-0.2 0.1-0.4 0.1-0.9 0.1-1.6-0.1-0.8-0.3-1.4-0.7-0.2-0.2-0.3-0.3-0.1-0.2-0.3-0.3-0.1-0.2-0.2-0.3-0.1-0.2-0.2-0.4-0.1-0.2-0.2-0.4-0.1-0.2-0.1-0.4-0.1-0.2-0.2-0.4 0-0.2 0-0.4-0.1-0.3-0.1-0.5 0-0.2 0-0.4 0-0.3 0.1-0.5 0-0.2 0.1-0.4 0-0.2 0.1-0.4 0-0.2 0.1-0.4 0.1-0.2 0.2-0.3 0.1-0.2 0.2-0.4 0.3-0.3 0.6-0.5 0.3-0.3 0.6-0.5 0.3-0.2 0.7-0.3 0.4-0.1 0.8-0.2 0.2 0 0.3 0 0.2 0 0.4 0 0.2 0 0.4 0 0.2 0.1 0.4 0.1 0.2 0.1 0.4 0.1 0.2 0.1 0.3 0.2 0.2 0.1 0.4 0.2 0.1 0.1 0.3 0.2zm-0.1 5.8q0-0.1 0.1-0.3 0.1-0.1 0.1-0.3 0-0.1 0.1-0.3 0-0.1 0-0.3 0-0.2 0-0.4 0-0.2 0-0.3 0-0.2 0-0.4 0-0.2-0.1-0.4 0-0.2 0-0.4 0-0.2-0.1-0.3 0-0.2-0.1-0.4 0-0.2-0.1-0.4-0.1-0.1-0.1-0.3-0.1-0.1-0.2-0.3-0.1-0.1-0.2-0.2 0-0.2-0.2-0.3 0-0.1-0.1-0.2-0.1-0.1-0.3-0.2-0.1-0.1-0.2-0.1-0.1-0.1-0.3-0.2-0.1 0-0.2 0-0.2-0.1-0.3-0.1-0.2 0-0.3 0-0.1 0-0.3 0-0.7 0.1-1.1 0.5-0.1 0.1-0.2 0.2-0.1 0.1-0.2 0.2-0.1 0.1-0.2 0.3 0 0.1-0.1 0.2-0.2 0.6-0.3 1.3 0 0.1 0 0.3 0 0.2 0 0.4 0 0.2 0 0.3 0 0.2 0.1 0.4 0.1 0.8 0.3 1.4 0.2 0.7 0.6 1.2 0.4 0.4 0.9 0.6 0.5 0.3 1.2 0.2 0.1 0 0.3-0.1 0.1 0 0.3-0.1 0.1 0 0.2-0.1 0.2-0.1 0.3-0.2 0.1-0.1 0.2-0.2 0.1-0.1 0.2-0.2 0.1-0.1 0.1-0.2 0.1-0.1 0.2-0.3z"/>
		<path id="Layer" fill-rule="evenodd" class="s44" d="m536.6 266.9h8.8v51.6c0 10.3-1.5 51.1-45.3 67-44-15.9-45.4-56.7-45.4-67v-51.6h8.9m5.1 0h62.7"/>
	</g>
	<path id="Layer" fill-rule="evenodd" class="s45" d="m508.6 146.2q5 0.3 10 0.9 4.9 0.6 9.9 1.5 4.9 0.9 9.8 2.1 4.8 1.2 9.6 2.8c-2.5-5.1-3.7-13.2-14-14 16.6-8.1 22.6 8 21.1 16.5q3.6 1.3 7.2 2.9 3.5 1.5 6.9 3.2 3.5 1.7 6.8 3.6 3.4 1.9 6.7 4c-1.6-5.2-2.8-12.1-12-13.7 17.4-6.5 21.7 10.3 19.3 18.6q2.6 1.9 5.2 3.9 2.6 2 5 4.1 2.5 2.1 4.9 4.3 2.4 2.2 4.7 4.5c-0.4-4.9-1.2-10.3-8.5-13.3 17.3-2.5 18.8 12.8 15.5 20.9q2.3 2.5 4.4 5.2 2.1 2.7 4.1 5.5 2.1 2.8 4 5.7 1.8 2.8 3.6 5.8c1.4-5.3 4.4-11.9-2.7-18.3 17.8 3.6 13 19.5 6.8 25.6q1.6 3.1 3.1 6.3 1.5 3.2 2.9 6.4 1.3 3.3 2.5 6.6 1.2 3.3 2.2 6.6c2.3-5 6.7-11 0.7-18.7 17.4 6.8 9 22.4 1.6 26.8q0.8 3.1 1.4 6.3 0.7 3.2 1.2 6.4 0.5 3.3 0.9 6.5 0.4 3.2 0.6 6.5c3.9-3.8 9.4-8.1 6.5-16.9 13.2 11.5 2.3 22.7-6.1 25.3q0.1 1.7 0.1 3.3 0 3-0.1 5.9-0.1 3-0.4 5.9-0.2 2.9-0.5 5.9-0.4 2.9-0.8 5.8c4-3.1 8.5-6.9 6.7-15 12 12.8 0.1 22.7-8.5 24.6q-0.9 4.1-2 8.2-1.2 4.1-2.5 8.1-1.4 4-3 7.9-1.5 3.9-3.3 7.8c5.1-1.9 11.9-3.5 13-12.7 7.5 16.3-8.3 21.8-16.9 20.4q-1.9 3.5-4 7-2.1 3.4-4.3 6.7-2.3 3.4-4.8 6.6-2.4 3.2-5 6.2c5.5 0 12.8 1.2 17.2-7.2 1 17.5-14.9 17.5-22.7 13.4q-2.7 2.9-5.6 5.7-2.9 2.8-6 5.4-3.1 2.6-6.3 5.1-3.1 2.5-6.5 4.8c5.6 0.2 12.7 1.8 17.5-6.5 0.3 18.9-18.2 16.6-24.7 11.3q-3.1 1.8-6.2 3.5-3.1 1.8-6.3 3.3-3.2 1.6-6.5 3-3.2 1.4-6.6 2.7c4.5 2.7 9.9 6 17.1 1.3-7.4 15-20.2 8.7-25.5 1.7q-4.1 1.3-8.2 2.3-4.2 1.1-8.4 1.9-4.2 0.8-8.5 1.4-4.2 0.6-8.5 1c3.7 4.1 7.3 10.9 17 8.7-12.8 12-22.9 0.2-24.8-8.3q-2.5 0.1-5 0.1-3.3 0-6.5-0.1-3.3-0.2-6.5-0.5-3.3-0.2-6.5-0.6-3.2-0.5-6.5-1c1.9 5.1 3.6 11.6 12.7 12.7-15 6.6-20.9-5.6-20.8-14.3q-4.1-0.9-8.2-2.1-4.1-1.2-8.1-2.6-4-1.4-8-3-3.9-1.6-7.7-3.4c1.4 5.1 2.8 11.6 11.6 13.2-16.4 6-21-8.6-19.5-17.2q-3.8-2.2-7.6-4.5-3.7-2.3-7.3-4.9-3.6-2.5-7-5.3-3.5-2.7-6.8-5.7c-0.3 5.6-4.4 13.6 4.3 20-18-1.8-14.9-18.1-9.3-24.8q-2.8-2.7-5.5-5.6-2.6-2.8-5.1-5.8-2.5-3-4.9-6.1-2.3-3.2-4.5-6.4c-1.2 5.3-3.9 11.9 3.3 18-17.6-3-13.7-18.7-7.8-25.1q-1.9-3.2-3.6-6.4-1.8-3.3-3.3-6.7-1.6-3.3-3.1-6.7-1.4-3.4-2.6-6.9c-2.8 4.6-7 10.1-2 17.8-15.6-7.8-8-21.1-0.7-25.8q-1-3.5-1.9-7-0.8-3.5-1.5-7.1-0.7-3.5-1.3-7.1-0.5-3.6-0.9-7.1c-2.9 4.5-7.1 9.7-2.5 17.6-16.4-9-6-23.3 1.9-26.8q-0.2-3.2-0.2-6.6 0-2.7 0.1-5.5 0.1-2.8 0.3-5.5 0.2-2.8 0.5-5.6 0.3-2.7 0.7-5.4c-4.7 3-12.1 5.5-11.3 15.4-10.4-14.6 3.9-22.9 12.6-23.1q0.8-4 1.8-8 1-4 2.2-7.9 1.2-3.9 2.6-7.7 1.5-3.8 3.1-7.6 0-0.1 0-0.2c-2.8 5.9-16.9 1.9-19.3 15.5-7.2-18.7 13.6-22.3 20.7-18.5q1.6-3.5 3.4-6.9 1.8-3.4 3.7-6.8 2-3.3 4.1-6.5 2.1-3.3 4.4-6.4c0.2-1.1 0.5-2 1.2-2.8-4.3 5-16.9-2.7-22.8 9.7-1.9-20 19.2-17.7 25-12.1 0.1 0.1 0.2 0.2 0.3 0.4q2.5-3.1 5.1-6.1 2.6-3 5.4-5.8 2.8-2.9 5.7-5.6 2.9-2.7 5.9-5.2c-5 3.7-16.3-4.4-23.3 7.1 0.2-20.1 21-15.8 26.1-9.6q0.1 0 0.1 0.1 2.9-2.2 5.9-4.4 2.9-2.1 6-4.1 3-2 6.2-3.8 3-1.8 6.2-3.4c-5.7 2.7-15.1-7.8-24.5 2 4.6-19.6 23.9-11 27.6-3.9q0.1 0.1 0.1 0.2 3.2-1.6 6.5-3 3.3-1.4 6.6-2.7 3.4-1.3 6.8-2.4 3.4-1.2 6.8-2.1c-4.5-3.3-9.6-9.2-18.6-4.9 9.9-14.7 22.6-5 26.2 3q4.2-0.9 8.3-1.6 4.2-0.7 8.4-1.2 4.2-0.5 8.4-0.7 4.2-0.2 8.4-0.3c-3.9-3.9-8-10.1-17.3-7.3 3.9-4.2 7.7-5.8 11.1-5.8 7.4-0.1 13.1 7.5 14.5 13.3zm-79.1 17.3q-0.1 0-0.2 0.1 0.1-0.1 0.2-0.1zm-52 42.9q0 0 0 0 0 0 0 0zm-18.2 32.4q0 0 0 0 0 0 0 0zm133-88.7q-4.1 0.2-8.2 0.7-4.1 0.4-8.2 1.1-4.1 0.7-8.1 1.6c0.4 8.2-10.3 26.6-24.6 14.9 11.3 1 14.1-9.5 18.7-13.5q-3.7 1-7.3 2.2-3.6 1.1-7.2 2.5-3.5 1.3-7 2.8-3.5 1.6-6.9 3.3c1.3 9-3.2 24.3-18.6 19.1 8.7-2.3 9.8-9.6 11.3-15.2q-2.5 1.4-5 3-2.5 1.5-4.9 3.2-2.4 1.6-4.8 3.4-2.3 1.7-4.6 3.5c3.2 8.6 2.1 24.6-14 22.8 8-4.2 7.4-11.6 7.7-17.4q-2.5 2.2-4.9 4.6-2.5 2.3-4.8 4.8-2.3 2.5-4.5 5-2.2 2.6-4.2 5.3c3.8 8.3 4.1 23.7-11.9 23.5 6.5-4.2 6.4-10.3 6.1-15.5q-1.9 2.6-3.6 5.4-1.7 2.7-3.2 5.6-1.6 2.8-3.1 5.7-1.4 2.9-2.8 5.8c6.2 6.7 11.3 22.2-4.5 26.4 5.6-6.4 3-12.7 1.1-18q-1.1 2.9-2.1 5.9-1 3-1.9 6-0.8 3-1.6 6-0.7 3.1-1.3 6.1c7.9 3 20.7 19.2 4.7 28.1 5.1-10-3.6-16.4-5.8-22-1.1 7.5-1.7 15.2-1.7 23.1q0 0.7 0 1.5 0 0.7 0 1.4 0 0.8 0 1.5 0.1 0.7 0.1 1.4c8.8-0.1 25.8 8.8 15.7 23.2 0.1-11.6-11.3-13.3-15.4-17.6q0.3 3.9 0.8 7.8 0.5 4 1.2 7.9 0.7 3.9 1.6 7.7 0.9 3.9 2 7.7c7.9-1.9 28.7 6.5 18.4 22.3-0.3-13.2-15.2-13-17.4-19.1q1.3 4 2.8 8 1.6 3.9 3.3 7.8 1.7 3.8 3.7 7.6 1.9 3.7 4.1 7.4c7.5-3.6 28.5-1.4 23.5 16.3-3.8-11.3-15.7-8.8-20.8-11.9q2.3 3.6 4.8 7.1 2.5 3.4 5.2 6.8 2.7 3.3 5.6 6.4 2.9 3.2 6 6.2c7.5-4 28.1-2.9 24.4 14.8-3.9-9.2-12.8-8.3-18.7-9.5q3.1 2.7 6.2 5.2 3.2 2.5 6.5 4.8 3.3 2.3 6.7 4.5 3.5 2.1 7 4.1c4.1-6.9 24.3-16.2 29 2-10.1-8.8-20.2 2.4-26.1-0.5q0 0.1 0 0.1 4.3 2.2 8.7 4.2 4.5 2 9 3.7 4.6 1.7 9.2 3 4.6 1.4 9.4 2.5 0.2-0.8 0.5-1.4c3.5-7.2 23.2-18 29.1-0.1-10.6-8.1-20 3.7-26.1 1.3 0.8 0.3 1.3 0.7 1.9 1.3 9.1 1.7 18.5 2.7 28.1 2.7q2.4 0 4.8-0.1c1.1-8 16-24.3 27.4-9.4-10.9-3.6-16.1 6.4-21.5 9.1q4.3-0.3 8.6-0.9 4.2-0.5 8.5-1.3 4.2-0.8 8.4-1.8 4.2-1.1 8.3-2.3c-0.1-0.3-0.2-0.6-0.3-0.9-2-7.7 6.3-28.5 22.4-18.4-13.4 0.4-13 15.5-19.3 17.4 0.9-0.2 1.8-0.2 2.7 0q3.7-1.3 7.2-2.7 3.6-1.5 7.1-3.2 3.5-1.6 6.9-3.5 3.5-1.8 6.8-3.9c-4.2-7.8-4.5-26.1 12.7-24.5-9.8 5.4-6.3 15.4-7.6 21.3q3.5-2.4 6.9-4.9 3.4-2.6 6.7-5.3 3.2-2.8 6.3-5.7 3.1-2.9 6-6c-5.4-6.2-8.2-27.5 10.5-26.7-10.2 6.3-5 17.2-7 22.9q2.9-3.2 5.5-6.6 2.6-3.3 5.1-6.8 2.4-3.5 4.6-7.1 2.3-3.6 4.3-7.3c-7.2-4.5-16.6-22.7 0.7-28.4-7.2 9.4 1.4 17.7 1.7 23.7q2-4 3.7-8.1 1.8-4.1 3.3-8.3 1.5-4.2 2.7-8.5 1.3-4.3 2.2-8.6c-8.1-1.2-24.2-16-9.2-27.2-4.3 12.6 10 17.5 9.7 24 0-0.7 0.3-1.3 0.6-2 1.7-9.1 2.6-18.5 2.6-28.1q0-1.3 0-2.7c-8.2-0.4-25.7-13.5-12-26.2-2.8 12.2 9.9 16 11.9 21.8q-0.2-3.7-0.5-7.4-0.4-3.6-0.9-7.2-0.6-3.7-1.3-7.3-0.7-3.6-1.5-7.1c-8.7 1.2-26.8-5.5-18.7-21 1.4 11.1 12.2 11.7 17.1 15.2q-1-3.6-2.2-7.1-1.2-3.5-2.6-6.9-1.4-3.4-2.9-6.8-1.6-3.3-3.3-6.6c-7.9 3.2-28.2 0.1-22.7-17.2 3.4 11.1 14.8 9.3 20.1 12.3q-1.8-3.1-3.7-6.1-1.9-3-4-5.9-2.1-3-4.3-5.8-2.2-2.8-4.5-5.5c-5.5 5.9-27.1 10.7-27.8-8 8 10.7 20.2 1.8 25.4 5.8-0.8-0.6-1.3-1.4-1.6-2.3q-2.6-2.8-5.2-5.4-2.7-2.6-5.5-5.1-2.9-2.5-5.8-4.8-2.9-2.4-6-4.6c-5.5 6.8-23.5 14.1-28.1-3 8.8 7.6 17.5 0.2 23.5-0.2q-3.5-2.3-7.1-4.4-3.6-2.1-7.4-4.1-3.7-1.9-7.5-3.6-3.9-1.7-7.8-3.2c-4.7 7.3-22.1 16.6-28.4 0 8.8 6.1 16.2-0.5 22-2.2q-4.7-1.5-9.5-2.8-4.7-1.2-9.6-2.1-4.8-0.9-9.7-1.5-4.9-0.5-9.8-0.8c-1.4 8.4-14.6 23.8-26.6 10.3 11.2 2.8 15.6-7.4 20.8-10.5q-1.2 0-2.3 0-4.1 0-8.3 0.2zm-61.5 282.6q0 0 0 0 0 0 0 0z"/>
	<path id="Layer" class="s1" d="m408.9 366.9c-0.3 1.3-0.7 3-0.9 5.2 0 0.4-0.5 3 0.9 3.1 1.1 0.1 1.3-2.7 1.3-2.7 0 0-0.9 3.1 0.3 3.5 1.7 0.3 1.9-3.4 1.9-3.4-0.2 1.1-1.3 3.7 0.3 4 1.7 0.3 2.2-3.6 2.2-3.6 0 0-1.4 3.9 0.3 4 1.6 0.1 1.6-3.8 1.6-3.8 0 0-0.9 4.7 1.4 4.3 1.3-0.2 1.5-1.8 1.8-2.8 0.4-1.4 1.3-3.2 0.2-6.1-0.7-2.2-0.5-2.8-0.5-2.8 0 0-2.6 2-4.7 3.3-1 0.6-6.1-2.2-6.1-2.2zm27.7-4.1c-0.4-0.2-0.3 1.8-0.5 2.7-0.1 1 0.2 3 3.4 2.9 3.1-0.3 6.3-1 8.3-0.5 2 0.6 4.9 0.6 6.5 0.6 1.6 0 2.7-0.1 3.4-0.4 0.7-0.3 2.1 0.4 2.8 0.4 0.6 0 1.7-1.1 1.6-1.8-0.1-1.2-1.2-1.2-2.9-1.3-1.5-0.2-3.6-0.5-4.6-0.8-1-0.4-2.9-1.5-5.3-1.9 0 0-4.6 0.1-5.5 0.1-1 0-6.6 0.3-7.2 0z"/>
	<path id="Layer" fill-rule="evenodd" class="s2" d="m421.4 369.6l-0.2-4.4 1.8 1.5 0.4-3.3c0.8-0.2 2 1.4 2 1.4l-0.1-3.4 2.7 3.1c0 0-0.2-2.6 0.8-4.1 0 0 2.1 1.8 2.1 3.9 0 1.8 1.8-2.6 1.8-2.6 0.4 1.5 1.5 4.9 1.5 4.9l1.2-1.8 1.1 3.8 2.2-3.4 1.8 3.9 4.1-0.3 0.5 2.3 1.8-2 2.4 1.5c0 0 2-0.5 3-0.5 1.1 0 2.3 1.3 2.3 1.3 0 0 0.7-1.3 1.5-1.8 0.8-0.5 1.8 0.8 2.1 1.5l1.5-2.7c0 0 2 2 2.3 2.7 0 0 0.3-2.3 0.8-3 0.4-0.8 1.2 0.3 1.8 1.2l1.2-4.1c0 0 1.3 0.3 2.3 1.8 1 1.6 1-2.2 1-2.2 0 0 2.3 3 2.9 5.1m57.1-0.8c0 0 0.8-2.1 1.8-3.1 0 0 2 2.4 2 3.1 0 0 0.6-0.3 1.6-1l1.6 1.5 1.8-1.2 1.7 1.5 3.1-1.3 1.2 1.3 4.9-0.6 1.8 0.8 1.7-2.2 1.6 1.7 2.6-2.6c0 0 1.2 1.1 1.5 1.8 0 0 2.1-1 2.6-1.8 0 0 2-0.7 2.2 0.5 0 0 1.3-0.9 1.2-2-0.1-1 1.4-0.3 1.9 1.1 0 0 0.5-2.1 2.1-2.3 0 0 1 1.2 0.7 3.5 0 0 2.3-1.8 3.3-2 0 0 0.5 2.6-0.2 4.8 0 0 2.3-3.8 2.8-2.5 0.2 0.7 0.8 3.3 0.2 5.1l2.1-1.3 0.5 1.8zm48.3 4.6l2.5 0.3-2.2 0.5zm-104.2 7.9c0 0 1.7-2.8 2.7-3.6 0 0 1.7 1.4 2.7 3.3zm5.4-0.4h0.6c-0.2 0.5-0.2 0.8-0.2 0.8q-0.2-0.4-0.4-0.8zm1.4-2c0 0 1.5 0.7 2.5 1.7l-3.3 0.3c0.2-0.6 0.4-1.3 0.8-2zm2.5 1.7l1.9-0.1c-0.6 0.7-1.1 1.5-1.1 1.5-0.1-0.5-0.4-1-0.8-1.4zm2.7-0.9c0.3-0.2 0.6 0.1 0.9 0.7l-1.7 0.1c0.2-0.3 0.5-0.6 0.8-0.8zm0.9 0.7l33.5-2.3c-1.2 0.8-2.8 3.9-2.8 3.9 0-1-1.5-2.1-1.5-2.1-1.6 0.6-1.9 3.4-1.9 3.4 0-1.1-1-2.7-1.8-2.2-0.7 0.3-1.7 4-1.7 4 0-1.3-2.1-2-2.1-2-0.7 1.1-3.3 4.5-3.3 4.5l-2.7-2.1c-3.2 0.8-5.7 3.3-5.4 2.1 0.5-2.1-1.8-3.6-1.8-3.6-0.6-0.3-2.5 1.5-2.5 1.5-0.6-3.3-2.6-4.2-2.6-4.2-1 0.1-2.8 2-2.8 2 0-0.9-0.3-2.1-0.6-2.9z"/>
	<path id="Layer" class="s3" d="m421.4 369.6l-0.2-4.4 1.8 1.6 0.4-3.4c0.8-0.2 2 1.4 2 1.4l-0.1-3.4 2.7 3.1c0 0-0.2-2.6 0.8-4.1 0 0 2.1 1.8 2.1 3.9 0 1.8 1.8-2.6 1.8-2.6 0.4 1.5 1.5 4.9 1.5 4.9l1.2-1.8 1.1 3.8 2.2-3.4 1.8 3.9 4.1-0.3 0.5 2.3 1.8-2 2.4 1.5c0 0 2-0.5 3-0.5 1.1 0 2.3 1.3 2.3 1.3 0 0 0.7-1.3 1.5-1.8 0.8-0.5 1.8 0.8 2.1 1.5l1.5-2.7c0 0 2 2 2.3 2.7 0 0 0.3-2.3 0.8-3 0.4-0.8 1.2 0.3 1.8 1.2l1.2-4.1c0 0 1.3 0.3 2.3 1.8 1 1.6 1-2.2 1-2.2 0 0 2.3 3 2.9 5.1 0 0-15.8 5.4-26.9 3.9-13-1.7-23.8-4.2-23.8-4.2m107.8-0.5c0 0 0.8-2.1 1.8-3.1 0 0 2 2.4 2 3.1 0 0 0.6-0.3 1.6-1l1.6 1.5 1.8-1.2 1.7 1.5 3.1-1.4 1.2 1.4 4.9-0.6 1.8 0.8 1.7-2.2 1.6 1.7 2.6-2.6c0 0 1.2 1.1 1.5 1.8 0 0 2.1-1 2.6-1.8 0 0 2-0.7 2.2 0.5 0 0 1.3-0.9 1.2-2-0.1-1 1.4-0.3 1.9 1.1 0 0 0.6-2.1 2.1-2.3 0 0 1 1.2 0.7 3.5 0 0 2.3-1.8 3.4-2 0 0 0.4 2.6-0.3 4.8 0 0 2.3-3.9 2.8-2.5 0.2 0.7 0.8 3.3 0.2 5.1l2.1-1.3 0.8 2.5 2.2-0.4c0 0-13.5 2-26.2 0.8-12.7-1.2-24.6-5.7-24.6-5.7zm-9.4 9.4c0.7-0.3-4.2 10-16 10.6-16.4 0.8-30.4-7.4-30.4-7.4 0 0 1.7-2.9 2.8-3.6 0 0 2.2 1.8 3 4.1 0 0 0.3-1.6 1-2.9 0 0 2.9 1.3 3.4 3.1 0 0 1-1.8 1.8-2.2 0.7-0.6 1.5 2 1.5 3.5 0 0 1.8-1.9 2.8-2 0 0 2 0.9 2.6 4.3 0 0 1.9-1.8 2.6-1.6 0 0 2.3 1.6 1.7 3.6-0.3 1.2 2.3-1.3 5.4-2l2.7 2c0 0 2.6-3.4 3.4-4.5 0 0 2.1 0.7 2.1 2 0 0 0.9-3.6 1.7-4 0.7-0.5 1.8 1.1 1.8 2.2 0 0 0.3-2.8 1.8-3.3 0 0 1.5 1 1.5 2 0 0 1.6-3.1 2.8-3.9z"/>
</svg>